<svg width="241" height="14" viewBox="0 0 241 14" fill="none" xmlns="http://www.w3.org/2000/svg">
<path d="M4.65286 1.43218L1.34995 10.5255H0L3.80315 0.548201H4.67342L4.65286 1.43218ZM7.42128 10.5255L4.11151 1.43218L4.09095 0.548201H4.96122L8.77808 10.5255H7.42128ZM7.24996 6.83196V7.91466H1.6446V6.83196H7.24996ZM11.5805 0V10.5255H10.3059V0H11.5805ZM15.1641 4.27597V10.5255H13.8964V3.11104H15.1298L15.1641 4.27597ZM17.4802 3.06993L17.4734 4.24856C17.3683 4.22572 17.2678 4.21201 17.1719 4.20745C17.0805 4.19831 16.9754 4.19374 16.8566 4.19374C16.5643 4.19374 16.3062 4.23942 16.0823 4.33079C15.8585 4.42216 15.6689 4.55007 15.5136 4.71453C15.3582 4.87899 15.2349 5.07543 15.1435 5.30385C15.0567 5.5277 14.9996 5.77439 14.9722 6.04392L14.6159 6.2495C14.6159 5.8018 14.6593 5.38151 14.7461 4.98863C14.8374 4.59576 14.9768 4.24856 15.1641 3.94705C15.3514 3.64097 15.5889 3.40342 15.8767 3.23439C16.1691 3.06079 16.5163 2.97399 16.9183 2.97399C17.0097 2.97399 17.1148 2.98541 17.2335 3.00826C17.3523 3.02653 17.4345 3.04709 17.4802 3.06993ZM21.8724 10.6625C21.3562 10.6625 20.8879 10.5757 20.4676 10.4021C20.0519 10.224 19.6933 9.97498 19.3918 9.6552C19.0949 9.33541 18.8664 8.95624 18.7066 8.51768C18.5467 8.07912 18.4667 7.59944 18.4667 7.07865V6.79085C18.4667 6.18782 18.5558 5.65104 18.734 5.1805C18.9121 4.7054 19.1542 4.30338 19.4603 3.97446C19.7664 3.64554 20.1136 3.39656 20.5019 3.22754C20.8902 3.05851 21.2922 2.97399 21.708 2.97399C22.2379 2.97399 22.6947 3.06536 23.0785 3.24809C23.4668 3.43083 23.7843 3.68665 24.031 4.01558C24.2776 4.33993 24.4604 4.72367 24.5792 5.1668C24.6979 5.60536 24.7573 6.08504 24.7573 6.60583V7.17459H19.2205V6.13986H23.4896V6.04392C23.4713 5.715 23.4028 5.39522 23.284 5.08457C23.1698 4.77392 22.9871 4.51809 22.7358 4.31709C22.4846 4.11608 22.1419 4.01558 21.708 4.01558C21.4201 4.01558 21.1552 4.07725 20.9131 4.20059C20.6709 4.31937 20.4631 4.49754 20.2895 4.73509C20.1159 4.97264 19.9811 5.26273 19.8852 5.60536C19.7892 5.94799 19.7413 6.34315 19.7413 6.79085V7.07865C19.7413 7.43041 19.7892 7.76162 19.8852 8.07227C19.9857 8.37835 20.1296 8.64788 20.3169 8.88086C20.5088 9.11385 20.7395 9.29658 21.009 9.42906C21.2831 9.56155 21.5937 9.62779 21.9409 9.62779C22.3886 9.62779 22.7678 9.53642 23.0785 9.35369C23.3891 9.17095 23.6609 8.92655 23.8939 8.62047L24.6614 9.23034C24.5015 9.47246 24.2982 9.70317 24.0515 9.92245C23.8048 10.1417 23.501 10.3199 23.1401 10.4569C22.7838 10.594 22.3612 10.6625 21.8724 10.6625ZM30.8901 9.25775V5.4409C30.8901 5.14853 30.8307 4.89498 30.7119 4.68027C30.5977 4.46099 30.4241 4.29196 30.1911 4.17318C29.9581 4.05441 29.6703 3.99502 29.3277 3.99502C29.0079 3.99502 28.7269 4.04984 28.4848 4.15948C28.2473 4.26912 28.06 4.41302 27.9229 4.59119C27.7904 4.76935 27.7242 4.96122 27.7242 5.1668H26.4565C26.4565 4.90183 26.525 4.63915 26.6621 4.37876C26.7991 4.11836 26.9955 3.88309 27.2514 3.67295C27.5118 3.45824 27.8224 3.28921 28.1833 3.16586C28.5488 3.03795 28.9554 2.97399 29.4031 2.97399C29.9421 2.97399 30.4172 3.06536 30.8284 3.24809C31.2441 3.43083 31.5685 3.70721 31.8014 4.07725C32.039 4.44272 32.1578 4.90183 32.1578 5.4546V8.90827C32.1578 9.15496 32.1783 9.41764 32.2194 9.69631C32.2651 9.97498 32.3314 10.2148 32.4182 10.4158V10.5255H31.0956C31.0317 10.3793 30.9814 10.1851 30.9449 9.943C30.9083 9.69631 30.8901 9.4679 30.8901 9.25775ZM31.1093 6.03022L31.123 6.92104H29.8416C29.4807 6.92104 29.1587 6.95074 28.8754 7.01013C28.5922 7.06495 28.3546 7.14946 28.1628 7.26367C27.9709 7.37788 27.8247 7.52178 27.7242 7.69538C27.6237 7.86441 27.5734 8.06313 27.5734 8.29155C27.5734 8.52453 27.626 8.73696 27.731 8.92883C27.8361 9.1207 27.9937 9.27374 28.2039 9.38795C28.4186 9.49759 28.6813 9.55241 28.9919 9.55241C29.3802 9.55241 29.7228 9.47018 30.0198 9.30572C30.3167 9.14126 30.552 8.94025 30.7256 8.7027C30.9038 8.46514 30.9997 8.23444 31.0134 8.01059L31.5547 8.62047C31.5228 8.81234 31.436 9.02477 31.2944 9.25775C31.1527 9.49074 30.9631 9.71459 30.7256 9.9293C30.4926 10.1394 30.2139 10.3153 29.8896 10.4569C29.5698 10.594 29.2089 10.6625 28.8069 10.6625C28.3044 10.6625 27.8635 10.5643 27.4844 10.3679C27.1097 10.1714 26.8174 9.90874 26.6072 9.57982C26.4017 9.24633 26.2989 8.87401 26.2989 8.46286C26.2989 8.06541 26.3765 7.71594 26.5319 7.41442C26.6872 7.10835 26.911 6.8548 27.2034 6.6538C27.4958 6.44822 27.8475 6.2929 28.2587 6.18782C28.6698 6.08275 29.129 6.03022 29.636 6.03022H31.1093ZM39.106 9.08644V0H40.3805V10.5255H39.2156L39.106 9.08644ZM34.1173 6.90049V6.75658C34.1173 6.19011 34.1858 5.67617 34.3229 5.21477C34.4645 4.74879 34.6632 4.34906 34.9191 4.01558C35.1795 3.68209 35.4878 3.42626 35.8442 3.24809C36.2051 3.06536 36.6071 2.97399 37.0502 2.97399C37.5162 2.97399 37.9227 3.05622 38.2699 3.22068C38.6217 3.38058 38.9186 3.61585 39.1608 3.92649C39.4075 4.23257 39.6016 4.60261 39.7432 5.0366C39.8849 5.47059 39.9831 5.96169 40.0379 6.50989V7.14032C39.9876 7.68396 39.8894 8.17277 39.7432 8.60676C39.6016 9.04076 39.4075 9.41079 39.1608 9.71687C38.9186 10.0229 38.6217 10.2582 38.2699 10.4227C37.9182 10.5826 37.507 10.6625 37.0365 10.6625C36.6025 10.6625 36.2051 10.5689 35.8442 10.3816C35.4878 10.1943 35.1795 9.93158 34.9191 9.59353C34.6632 9.25547 34.4645 8.85802 34.3229 8.40119C34.1858 7.93978 34.1173 7.43955 34.1173 6.90049ZM35.3919 6.75658V6.90049C35.3919 7.27052 35.4284 7.61772 35.5015 7.94207C35.5792 8.26642 35.698 8.55194 35.8579 8.79863C36.0177 9.04532 36.221 9.23948 36.4677 9.3811C36.7144 9.51815 37.0091 9.58667 37.3517 9.58667C37.772 9.58667 38.1169 9.49759 38.3864 9.31942C38.6605 9.14126 38.8798 8.90599 39.0443 8.61362C39.2087 8.32124 39.3367 8.00374 39.428 7.66112V6.00966C39.3732 5.7584 39.2933 5.51628 39.1882 5.28329C39.0877 5.04574 38.9552 4.83559 38.7907 4.65286C38.6308 4.46556 38.4321 4.31709 38.1946 4.20745C37.9616 4.09781 37.6852 4.04299 37.3654 4.04299C37.0182 4.04299 36.719 4.11608 36.4677 4.26227C36.221 4.40388 36.0177 4.60032 35.8579 4.85158C35.698 5.09827 35.5792 5.38608 35.5015 5.715C35.4284 6.03935 35.3919 6.38655 35.3919 6.75658ZM44.7179 9.75799L46.7805 3.11104H48.1373L45.1633 11.6698C45.0948 11.8526 45.0034 12.049 44.8892 12.2592C44.7796 12.4739 44.6379 12.6772 44.4643 12.869C44.2907 13.0609 44.0806 13.2162 43.8339 13.335C43.5918 13.4583 43.3017 13.52 42.9636 13.52C42.8631 13.52 42.7352 13.5063 42.5799 13.4789C42.4246 13.4515 42.3149 13.4287 42.251 13.4104L42.2441 12.3825C42.2807 12.3871 42.3378 12.3916 42.4154 12.3962C42.4977 12.4053 42.5548 12.4099 42.5868 12.4099C42.8746 12.4099 43.119 12.3711 43.32 12.2934C43.521 12.2203 43.69 12.0947 43.8271 11.9165C43.9687 11.7429 44.0897 11.5031 44.1902 11.197L44.7179 9.75799ZM43.2035 3.11104L45.129 8.86716L45.458 10.2034L44.5466 10.6694L41.8193 3.11104H43.2035ZM54.5918 4.27597V10.5255H53.3241V3.11104H54.5576L54.5918 4.27597ZM56.908 3.06993L56.9011 4.24856C56.796 4.22572 56.6955 4.21201 56.5996 4.20745C56.5082 4.19831 56.4032 4.19374 56.2844 4.19374C55.992 4.19374 55.7339 4.23942 55.5101 4.33079C55.2862 4.42216 55.0966 4.55007 54.9413 4.71453C54.786 4.87899 54.6626 5.07543 54.5713 5.30385C54.4845 5.5277 54.4274 5.77439 54.3999 6.04392L54.0436 6.2495C54.0436 5.8018 54.087 5.38151 54.1738 4.98863C54.2652 4.59576 54.4045 4.24856 54.5918 3.94705C54.7791 3.64097 55.0167 3.40342 55.3045 3.23439C55.5969 3.06079 55.9441 2.97399 56.3461 2.97399C56.4374 2.97399 56.5425 2.98541 56.6613 3.00826C56.7801 3.02653 56.8623 3.04709 56.908 3.06993ZM61.3002 10.6625C60.7839 10.6625 60.3157 10.5757 59.8954 10.4021C59.4797 10.224 59.1211 9.97498 58.8195 9.6552C58.5226 9.33541 58.2942 8.95624 58.1343 8.51768C57.9744 8.07912 57.8945 7.59944 57.8945 7.07865V6.79085C57.8945 6.18782 57.9835 5.65104 58.1617 5.1805C58.3399 4.7054 58.582 4.30338 58.8881 3.97446C59.1942 3.64554 59.5413 3.39656 59.9297 3.22754C60.318 3.05851 60.72 2.97399 61.1357 2.97399C61.6656 2.97399 62.1225 3.06536 62.5062 3.24809C62.8945 3.43083 63.212 3.68665 63.4587 4.01558C63.7054 4.33993 63.8881 4.72367 64.0069 5.1668C64.1257 5.60536 64.1851 6.08504 64.1851 6.60583V7.17459H58.6482V6.13986H62.9174V6.04392C62.8991 5.715 62.8306 5.39522 62.7118 5.08457C62.5976 4.77392 62.4148 4.51809 62.1636 4.31709C61.9123 4.11608 61.5697 4.01558 61.1357 4.01558C60.8479 4.01558 60.5829 4.07725 60.3408 4.20059C60.0987 4.31937 59.8908 4.49754 59.7172 4.73509C59.5436 4.97264 59.4089 5.26273 59.3129 5.60536C59.217 5.94799 59.169 6.34315 59.169 6.79085V7.07865C59.169 7.43041 59.217 7.76162 59.3129 8.07227C59.4134 8.37835 59.5573 8.64788 59.7446 8.88086C59.9365 9.11385 60.1672 9.29658 60.4367 9.42906C60.7108 9.56155 61.0215 9.62779 61.3687 9.62779C61.8164 9.62779 62.1956 9.53642 62.5062 9.35369C62.8169 9.17095 63.0887 8.92655 63.3217 8.62047L64.0891 9.23034C63.9292 9.47246 63.726 9.70317 63.4793 9.92245C63.2326 10.1417 62.9288 10.3199 62.5679 10.4569C62.2115 10.594 61.789 10.6625 61.3002 10.6625ZM70.7495 3.11104H71.9007V10.3679C71.9007 11.0211 71.7683 11.5785 71.5033 12.0399C71.2383 12.5013 70.8683 12.8508 70.3932 13.0883C69.9226 13.3304 69.379 13.4515 68.7623 13.4515C68.5065 13.4515 68.2049 13.4104 67.8577 13.3281C67.5151 13.2505 67.1771 13.1157 66.8436 12.9238C66.5147 12.7365 66.2383 12.483 66.0144 12.1632L66.6791 11.4094C66.9898 11.784 67.3141 12.0444 67.6522 12.1906C67.9948 12.3368 68.3329 12.4099 68.6663 12.4099C69.0684 12.4099 69.4156 12.3345 69.7079 12.1838C70.0003 12.033 70.2264 11.8092 70.3863 11.5122C70.5508 11.2199 70.633 10.859 70.633 10.4295V4.74194L70.7495 3.11104ZM65.6444 6.90049V6.75658C65.6444 6.19011 65.7106 5.67617 65.8431 5.21477C65.9802 4.74879 66.1743 4.34906 66.4256 4.01558C66.6814 3.68209 66.9898 3.42626 67.3507 3.24809C67.7116 3.06536 68.1181 2.97399 68.5704 2.97399C69.0364 2.97399 69.443 3.05622 69.7902 3.22068C70.1419 3.38058 70.4389 3.61585 70.681 3.92649C70.9277 4.23257 71.1218 4.60261 71.2634 5.0366C71.4051 5.47059 71.5033 5.96169 71.5581 6.50989V7.14032C71.5079 7.68396 71.4096 8.17277 71.2634 8.60676C71.1218 9.04076 70.9277 9.41079 70.681 9.71687C70.4389 10.0229 70.1419 10.2582 69.7902 10.4227C69.4384 10.5826 69.0272 10.6625 68.5567 10.6625C68.1136 10.6625 67.7116 10.5689 67.3507 10.3816C66.9943 10.1943 66.6883 9.93158 66.4324 9.59353C66.1766 9.25547 65.9802 8.85802 65.8431 8.40119C65.7106 7.93978 65.6444 7.43955 65.6444 6.90049ZM66.9121 6.75658V6.90049C66.9121 7.27052 66.9486 7.61772 67.0217 7.94207C67.0994 8.26642 67.2159 8.55194 67.3712 8.79863C67.5311 9.04532 67.7344 9.23948 67.9811 9.3811C68.2278 9.51815 68.5224 9.58667 68.8651 9.58667C69.2854 9.58667 69.6326 9.49759 69.9067 9.31942C70.1808 9.14126 70.3977 8.90599 70.5576 8.61362C70.7221 8.32124 70.85 8.00374 70.9414 7.66112V6.00966C70.8911 5.7584 70.8135 5.51628 70.7084 5.28329C70.6079 5.04574 70.4754 4.83559 70.3109 4.65286C70.1511 4.46556 69.9523 4.31709 69.7148 4.20745C69.4772 4.09781 69.1986 4.04299 68.8788 4.04299C68.5316 4.04299 68.2324 4.11608 67.9811 4.26227C67.7344 4.40388 67.5311 4.60032 67.3712 4.85158C67.2159 5.09827 67.0994 5.38608 67.0217 5.715C66.9486 6.03935 66.9121 6.38655 66.9121 6.75658ZM75.4843 3.11104V10.5255H74.2098V3.11104H75.4843ZM74.1138 1.14437C74.1138 0.938795 74.1755 0.765198 74.2988 0.623579C74.4268 0.48196 74.6141 0.411151 74.8607 0.411151C75.1029 0.411151 75.2879 0.48196 75.4158 0.623579C75.5483 0.765198 75.6145 0.938795 75.6145 1.14437C75.6145 1.34081 75.5483 1.50984 75.4158 1.65146C75.2879 1.78851 75.1029 1.85703 74.8607 1.85703C74.6141 1.85703 74.4268 1.78851 74.2988 1.65146C74.1755 1.50984 74.1138 1.34081 74.1138 1.14437ZM82.1173 8.5588C82.1173 8.37606 82.0762 8.20703 81.9939 8.05171C81.9163 7.89182 81.7541 7.74791 81.5074 7.62C81.2653 7.48752 80.8998 7.37331 80.411 7.27737C79.9999 7.19058 79.6275 7.08779 79.2941 6.96901C78.9651 6.85023 78.6842 6.70633 78.4512 6.5373C78.2228 6.36827 78.0469 6.16955 77.9235 5.94113C77.8002 5.71272 77.7385 5.44547 77.7385 5.13939C77.7385 4.84701 77.8025 4.57063 77.9304 4.31023C78.0629 4.04984 78.2479 3.81914 78.4855 3.61813C78.7276 3.41712 79.0177 3.25951 79.3557 3.14531C79.6938 3.0311 80.0707 2.97399 80.4864 2.97399C81.0803 2.97399 81.5874 3.07906 82.0076 3.28921C82.4279 3.49935 82.75 3.78031 82.9739 4.13207C83.1977 4.47926 83.3096 4.86529 83.3096 5.29014H82.0419C82.0419 5.08457 81.9802 4.88585 81.8569 4.69397C81.7381 4.49754 81.5622 4.33536 81.3292 4.20745C81.1008 4.07953 80.8199 4.01558 80.4864 4.01558C80.1346 4.01558 79.8491 4.0704 79.6298 4.18004C79.4151 4.28511 79.2575 4.41987 79.157 4.58433C79.0611 4.74879 79.0131 4.92239 79.0131 5.10513C79.0131 5.24218 79.0359 5.36552 79.0816 5.47516C79.1319 5.58023 79.2187 5.67845 79.342 5.76982C79.4654 5.85662 79.639 5.93885 79.8628 6.01651C80.0867 6.09417 80.3722 6.17183 80.7194 6.2495C81.327 6.38655 81.8272 6.55101 82.2201 6.74288C82.613 6.93475 82.9053 7.17002 83.0972 7.44869C83.2891 7.72736 83.385 8.06541 83.385 8.46286C83.385 8.78721 83.3165 9.08415 83.1794 9.35369C83.0469 9.62322 82.8528 9.85621 82.597 10.0526C82.3457 10.2445 82.0442 10.3953 81.6924 10.5049C81.3452 10.61 80.9546 10.6625 80.5207 10.6625C79.8674 10.6625 79.3146 10.546 78.8623 10.313C78.4101 10.0801 78.0674 9.77854 77.8345 9.40851C77.6015 9.03847 77.485 8.64788 77.485 8.23673H78.7596C78.7778 8.58392 78.8783 8.86031 79.0611 9.06588C79.2438 9.26689 79.4676 9.41079 79.7326 9.49759C79.9976 9.57982 80.2603 9.62094 80.5207 9.62094C80.8678 9.62094 81.1579 9.57525 81.3909 9.48388C81.6285 9.39252 81.8089 9.26689 81.9323 9.107C82.0556 8.9471 82.1173 8.76437 82.1173 8.5588ZM88.435 3.11104V4.0841H84.4263V3.11104H88.435ZM85.7831 1.30883H87.0508V8.68899C87.0508 8.94025 87.0897 9.12984 87.1673 9.25775C87.245 9.38567 87.3455 9.47018 87.4688 9.5113C87.5922 9.55241 87.7247 9.57297 87.8663 9.57297C87.9713 9.57297 88.081 9.56383 88.1952 9.54556C88.314 9.52272 88.4031 9.50444 88.4624 9.49074L88.4693 10.5255C88.3688 10.5574 88.2363 10.5871 88.0719 10.6146C87.912 10.6465 87.7178 10.6625 87.4894 10.6625C87.1787 10.6625 86.8932 10.6008 86.6328 10.4775C86.3724 10.3542 86.1646 10.1486 86.0092 9.86077C85.8585 9.5684 85.7831 9.17552 85.7831 8.68214V1.30883ZM93.2795 10.6625C92.7633 10.6625 92.295 10.5757 91.8747 10.4021C91.459 10.224 91.1004 9.97498 90.7989 9.6552C90.5019 9.33541 90.2735 8.95624 90.1136 8.51768C89.9537 8.07912 89.8738 7.59944 89.8738 7.07865V6.79085C89.8738 6.18782 89.9629 5.65104 90.141 5.1805C90.3192 4.7054 90.5613 4.30338 90.8674 3.97446C91.1735 3.64554 91.5207 3.39656 91.909 3.22754C92.2973 3.05851 92.6993 2.97399 93.115 2.97399C93.645 2.97399 94.1018 3.06536 94.4855 3.24809C94.8738 3.43083 95.1913 3.68665 95.438 4.01558C95.6847 4.33993 95.8675 4.72367 95.9862 5.1668C96.105 5.60536 96.1644 6.08504 96.1644 6.60583V7.17459H90.6276V6.13986H94.8967V6.04392C94.8784 5.715 94.8099 5.39522 94.6911 5.08457C94.5769 4.77392 94.3942 4.51809 94.1429 4.31709C93.8916 4.11608 93.549 4.01558 93.115 4.01558C92.8272 4.01558 92.5623 4.07725 92.3201 4.20059C92.078 4.31937 91.8702 4.49754 91.6966 4.73509C91.523 4.97264 91.3882 5.26273 91.2923 5.60536C91.1963 5.94799 91.1484 6.34315 91.1484 6.79085V7.07865C91.1484 7.43041 91.1963 7.76162 91.2923 8.07227C91.3928 8.37835 91.5367 8.64788 91.724 8.88086C91.9158 9.11385 92.1465 9.29658 92.4161 9.42906C92.6902 9.56155 93.0008 9.62779 93.348 9.62779C93.7957 9.62779 94.1749 9.53642 94.4855 9.35369C94.7962 9.17095 95.068 8.92655 95.301 8.62047L96.0685 9.23034C95.9086 9.47246 95.7053 9.70317 95.4586 9.92245C95.2119 10.1417 94.9081 10.3199 94.5472 10.4569C94.1909 10.594 93.7683 10.6625 93.2795 10.6625ZM99.1929 4.27597V10.5255H97.9252V3.11104H99.1587L99.1929 4.27597ZM101.509 3.06993L101.502 4.24856C101.397 4.22572 101.297 4.21201 101.201 4.20745C101.109 4.19831 101.004 4.19374 100.886 4.19374C100.593 4.19374 100.335 4.23942 100.111 4.33079C99.8873 4.42216 99.6977 4.55007 99.5424 4.71453C99.3871 4.87899 99.2637 5.07543 99.1724 5.30385C99.0856 5.5277 99.0285 5.77439 99.0011 6.04392L98.6447 6.2495C98.6447 5.8018 98.6881 5.38151 98.7749 4.98863C98.8663 4.59576 99.0056 4.24856 99.1929 3.94705C99.3802 3.64097 99.6178 3.40342 99.9056 3.23439C100.198 3.06079 100.545 2.97399 100.947 2.97399C101.039 2.97399 101.144 2.98541 101.262 3.00826C101.381 3.02653 101.463 3.04709 101.509 3.06993ZM105.901 10.6625C105.385 10.6625 104.917 10.5757 104.497 10.4021C104.081 10.224 103.722 9.97498 103.421 9.6552C103.124 9.33541 102.895 8.95624 102.735 8.51768C102.576 8.07912 102.496 7.59944 102.496 7.07865V6.79085C102.496 6.18782 102.585 5.65104 102.763 5.1805C102.941 4.7054 103.183 4.30338 103.489 3.97446C103.795 3.64554 104.142 3.39656 104.531 3.22754C104.919 3.05851 105.321 2.97399 105.737 2.97399C106.267 2.97399 106.724 3.06536 107.107 3.24809C107.496 3.43083 107.813 3.68665 108.06 4.01558C108.307 4.33993 108.489 4.72367 108.608 5.1668C108.727 5.60536 108.786 6.08504 108.786 6.60583V7.17459H103.249V6.13986H107.518V6.04392C107.5 5.715 107.432 5.39522 107.313 5.08457C107.199 4.77392 107.016 4.51809 106.765 4.31709C106.513 4.11608 106.171 4.01558 105.737 4.01558C105.449 4.01558 105.184 4.07725 104.942 4.20059C104.7 4.31937 104.492 4.49754 104.318 4.73509C104.145 4.97264 104.01 5.26273 103.914 5.60536C103.818 5.94799 103.77 6.34315 103.77 6.79085V7.07865C103.77 7.43041 103.818 7.76162 103.914 8.07227C104.015 8.37835 104.158 8.64788 104.346 8.88086C104.538 9.11385 104.768 9.29658 105.038 9.42906C105.312 9.56155 105.623 9.62779 105.97 9.62779C106.418 9.62779 106.797 9.53642 107.107 9.35369C107.418 9.17095 107.69 8.92655 107.923 8.62047L108.69 9.23034C108.53 9.47246 108.327 9.70317 108.08 9.92245C107.834 10.1417 107.53 10.3199 107.169 10.4569C106.813 10.594 106.39 10.6625 105.901 10.6625ZM115.22 9.08644V0H116.495V10.5255H115.33L115.22 9.08644ZM110.232 6.90049V6.75658C110.232 6.19011 110.3 5.67617 110.437 5.21477C110.579 4.74879 110.778 4.34906 111.034 4.01558C111.294 3.68209 111.602 3.42626 111.959 3.24809C112.32 3.06536 112.722 2.97399 113.165 2.97399C113.631 2.97399 114.037 3.05622 114.384 3.22068C114.736 3.38058 115.033 3.61585 115.275 3.92649C115.522 4.23257 115.716 4.60261 115.858 5.0366C115.999 5.47059 116.098 5.96169 116.152 6.50989V7.14032C116.102 7.68396 116.004 8.17277 115.858 8.60676C115.716 9.04076 115.522 9.41079 115.275 9.71687C115.033 10.0229 114.736 10.2582 114.384 10.4227C114.033 10.5826 113.622 10.6625 113.151 10.6625C112.717 10.6625 112.32 10.5689 111.959 10.3816C111.602 10.1943 111.294 9.93158 111.034 9.59353C110.778 9.25547 110.579 8.85802 110.437 8.40119C110.3 7.93978 110.232 7.43955 110.232 6.90049ZM111.506 6.75658V6.90049C111.506 7.27052 111.543 7.61772 111.616 7.94207C111.694 8.26642 111.812 8.55194 111.972 8.79863C112.132 9.04532 112.336 9.23948 112.582 9.3811C112.829 9.51815 113.124 9.58667 113.466 9.58667C113.886 9.58667 114.231 9.49759 114.501 9.31942C114.775 9.14126 114.994 8.90599 115.159 8.61362C115.323 8.32124 115.451 8.00374 115.543 7.66112V6.00966C115.488 5.7584 115.408 5.51628 115.303 5.28329C115.202 5.04574 115.07 4.83559 114.905 4.65286C114.745 4.46556 114.547 4.31709 114.309 4.20745C114.076 4.09781 113.8 4.04299 113.48 4.04299C113.133 4.04299 112.833 4.11608 112.582 4.26227C112.336 4.40388 112.132 4.60032 111.972 4.85158C111.812 5.09827 111.694 5.38608 111.616 5.715C111.543 6.03935 111.506 6.38655 111.506 6.75658ZM121.504 7.71594H120.229C120.234 7.27737 120.273 6.91876 120.346 6.64009C120.424 6.35685 120.549 6.09874 120.723 5.86576C120.896 5.63277 121.127 5.36781 121.415 5.07086C121.625 4.85615 121.817 4.65514 121.99 4.46784C122.169 4.27597 122.313 4.0704 122.422 3.85112C122.532 3.62727 122.587 3.36002 122.587 3.04937C122.587 2.73415 122.53 2.46234 122.415 2.23392C122.306 2.0055 122.141 1.82962 121.922 1.70628C121.707 1.58293 121.44 1.52126 121.12 1.52126C120.855 1.52126 120.604 1.56923 120.366 1.66516C120.129 1.7611 119.937 1.90957 119.791 2.11058C119.645 2.30701 119.569 2.56513 119.565 2.88491H118.297C118.306 2.36869 118.434 1.92556 118.681 1.55552C118.932 1.18549 119.27 0.902248 119.695 0.705809C120.12 0.509371 120.595 0.411151 121.12 0.411151C121.7 0.411151 122.194 0.516223 122.6 0.726367C123.011 0.936511 123.324 1.23802 123.539 1.6309C123.754 2.01921 123.861 2.48061 123.861 3.01511C123.861 3.42626 123.777 3.80543 123.608 4.15263C123.443 4.49525 123.231 4.81732 122.97 5.11883C122.71 5.42034 122.434 5.70815 122.141 5.98225C121.89 6.21523 121.721 6.47791 121.634 6.77029C121.547 7.06266 121.504 7.37788 121.504 7.71594ZM120.175 9.88818C120.175 9.68261 120.238 9.50901 120.366 9.36739C120.494 9.22577 120.679 9.15496 120.921 9.15496C121.168 9.15496 121.355 9.22577 121.483 9.36739C121.611 9.50901 121.675 9.68261 121.675 9.88818C121.675 10.0846 121.611 10.2537 121.483 10.3953C121.355 10.5369 121.168 10.6077 120.921 10.6077C120.679 10.6077 120.494 10.5369 120.366 10.3953C120.238 10.2537 120.175 10.0846 120.175 9.88818Z" fill="#807D7E"/>
<path d="M133.262 6.88678H130.693V5.40664H133.262C133.683 5.40664 134.023 5.33811 134.283 5.20106C134.548 5.05944 134.742 4.86757 134.866 4.62545C134.989 4.37876 135.051 4.09781 135.051 3.78259C135.051 3.47651 134.989 3.19099 134.866 2.92603C134.742 2.66106 134.548 2.44635 134.283 2.28189C134.023 2.11743 133.683 2.0352 133.262 2.0352H131.309V10.5255H129.425V0.548201H133.262C134.039 0.548201 134.701 0.687536 135.25 0.966205C135.802 1.24031 136.223 1.62176 136.51 2.11058C136.803 2.59482 136.949 3.14759 136.949 3.76888C136.949 4.41302 136.803 4.96808 136.51 5.43405C136.223 5.90002 135.802 6.25863 135.25 6.50989C134.701 6.76115 134.039 6.88678 133.262 6.88678ZM140.491 0V10.5255H138.676V0H140.491ZM145.829 10.6625C145.267 10.6625 144.763 10.5712 144.315 10.3884C143.867 10.2057 143.486 9.95214 143.17 9.62779C142.86 9.29887 142.62 8.91741 142.451 8.48342C142.287 8.04486 142.204 7.57432 142.204 7.0718V6.7977C142.204 6.22665 142.287 5.70815 142.451 5.24218C142.615 4.77164 142.848 4.36734 143.15 4.02928C143.451 3.69122 143.812 3.43083 144.233 3.24809C144.653 3.06536 145.117 2.97399 145.624 2.97399C146.149 2.97399 146.613 3.06308 147.015 3.24124C147.417 3.41484 147.753 3.66153 148.022 3.98131C148.292 4.3011 148.495 4.68484 148.632 5.13254C148.769 5.57567 148.838 6.06676 148.838 6.60583V7.36646H143.027V6.1193H147.056V5.98225C147.047 5.69444 146.992 5.43176 146.891 5.19421C146.791 4.95209 146.636 4.76022 146.425 4.6186C146.215 4.47241 145.943 4.39932 145.61 4.39932C145.34 4.39932 145.105 4.45871 144.904 4.57748C144.708 4.69169 144.543 4.85615 144.411 5.07086C144.283 5.28101 144.187 5.53227 144.123 5.82464C144.059 6.11701 144.027 6.44137 144.027 6.7977V7.0718C144.027 7.38245 144.068 7.67025 144.15 7.93522C144.237 8.20018 144.363 8.43088 144.527 8.62732C144.696 8.81919 144.897 8.96995 145.13 9.07959C145.368 9.18466 145.637 9.23719 145.939 9.23719C146.318 9.23719 146.661 9.1641 146.967 9.01791C147.277 8.86716 147.547 8.64559 147.775 8.35322L148.687 9.29887C148.531 9.52728 148.321 9.74656 148.056 9.95671C147.796 10.1669 147.481 10.3382 147.111 10.4706C146.741 10.5986 146.314 10.6625 145.829 10.6625ZM154.415 8.94939V5.52998C154.415 5.27872 154.372 5.06173 154.285 4.87899C154.198 4.69626 154.066 4.55464 153.888 4.45414C153.709 4.35363 153.483 4.30338 153.209 4.30338C152.967 4.30338 152.755 4.3445 152.572 4.42673C152.394 4.50896 152.257 4.62545 152.161 4.77621C152.065 4.92239 152.017 5.09142 152.017 5.28329H150.201C150.201 4.97721 150.274 4.68712 150.42 4.41302C150.566 4.13435 150.774 3.88766 151.044 3.67295C151.318 3.45367 151.644 3.28236 152.024 3.15901C152.407 3.03567 152.837 2.97399 153.312 2.97399C153.874 2.97399 154.374 3.06993 154.813 3.2618C155.256 3.4491 155.603 3.73234 155.854 4.11151C156.11 4.49068 156.238 4.96808 156.238 5.54369V8.77808C156.238 9.14811 156.261 9.46561 156.306 9.73058C156.357 9.99097 156.43 10.2171 156.526 10.409V10.5255H154.682C154.596 10.3382 154.529 10.1006 154.484 9.81281C154.438 9.52043 154.415 9.23263 154.415 8.94939ZM154.669 6.00966L154.682 7.0855H153.538C153.255 7.0855 153.006 7.1152 152.791 7.17459C152.576 7.22941 152.401 7.31164 152.264 7.42128C152.126 7.52635 152.024 7.65426 151.955 7.80502C151.887 7.95121 151.852 8.11795 151.852 8.30525C151.852 8.48799 151.893 8.65245 151.976 8.79863C152.062 8.94482 152.186 9.06131 152.346 9.14811C152.51 9.23034 152.702 9.27146 152.921 9.27146C153.241 9.27146 153.52 9.2075 153.757 9.07959C153.995 8.9471 154.18 8.78721 154.312 8.59991C154.445 8.41261 154.516 8.23444 154.525 8.06541L155.046 8.8466C154.982 9.0339 154.886 9.23263 154.758 9.44277C154.63 9.65291 154.465 9.84935 154.264 10.0321C154.063 10.2148 153.821 10.3656 153.538 10.4844C153.255 10.6031 152.926 10.6625 152.551 10.6625C152.072 10.6625 151.642 10.5666 151.263 10.3747C150.884 10.1828 150.585 9.92016 150.365 9.58667C150.146 9.25318 150.036 8.87401 150.036 8.44915C150.036 8.05628 150.11 7.70908 150.256 7.40757C150.402 7.10606 150.619 6.85252 150.907 6.64694C151.195 6.4368 151.551 6.27919 151.976 6.17412C152.405 6.06448 152.896 6.00966 153.449 6.00966H154.669ZM162.227 8.49712C162.227 8.3418 162.186 8.20246 162.103 8.07912C162.021 7.95577 161.866 7.84385 161.637 7.74335C161.414 7.63827 161.085 7.54005 160.651 7.44869C160.267 7.36646 159.913 7.26367 159.589 7.14032C159.264 7.01698 158.986 6.86851 158.753 6.69491C158.52 6.51674 158.337 6.30888 158.204 6.07133C158.076 5.82921 158.012 5.55054 158.012 5.23532C158.012 4.92924 158.079 4.64144 158.211 4.37191C158.344 4.09781 158.536 3.85797 158.787 3.65239C159.038 3.44225 159.344 3.27779 159.705 3.15901C160.066 3.03567 160.473 2.97399 160.925 2.97399C161.555 2.97399 162.097 3.07678 162.549 3.28236C163.006 3.48793 163.355 3.77117 163.597 4.13207C163.839 4.4884 163.96 4.89041 163.96 5.33811H162.151C162.151 5.14167 162.106 4.96351 162.014 4.80362C161.928 4.64372 161.793 4.51581 161.61 4.41987C161.427 4.31937 161.197 4.26912 160.918 4.26912C160.667 4.26912 160.454 4.31023 160.281 4.39246C160.112 4.47469 159.984 4.58205 159.897 4.71453C159.81 4.84701 159.767 4.9932 159.767 5.15309C159.767 5.27187 159.79 5.37923 159.835 5.47516C159.886 5.56653 159.965 5.65104 160.075 5.72871C160.185 5.80637 160.333 5.87718 160.521 5.94113C160.712 6.00509 160.948 6.06676 161.226 6.12615C161.779 6.23579 162.261 6.38198 162.672 6.56471C163.088 6.74288 163.412 6.98043 163.645 7.27737C163.878 7.57432 163.995 7.95349 163.995 8.41489C163.995 8.74381 163.924 9.04532 163.782 9.31942C163.641 9.58896 163.435 9.82423 163.166 10.0252C162.896 10.2262 162.574 10.3838 162.199 10.4981C161.825 10.6077 161.402 10.6625 160.932 10.6625C160.251 10.6625 159.675 10.5415 159.205 10.2993C158.734 10.0526 158.378 9.742 158.136 9.36739C157.894 8.98822 157.773 8.59534 157.773 8.18876H159.506C159.52 8.47656 159.598 8.70727 159.739 8.88086C159.881 9.05446 160.059 9.18009 160.274 9.25775C160.493 9.33085 160.724 9.36739 160.966 9.36739C161.24 9.36739 161.471 9.33085 161.658 9.25775C161.845 9.18009 161.987 9.0773 162.083 8.94939C162.179 8.81691 162.227 8.66615 162.227 8.49712ZM168.983 10.6625C168.421 10.6625 167.916 10.5712 167.469 10.3884C167.021 10.2057 166.64 9.95214 166.324 9.62779C166.014 9.29887 165.774 8.91741 165.605 8.48342C165.44 8.04486 165.358 7.57432 165.358 7.0718V6.7977C165.358 6.22665 165.44 5.70815 165.605 5.24218C165.769 4.77164 166.002 4.36734 166.304 4.02928C166.605 3.69122 166.966 3.43083 167.386 3.24809C167.807 3.06536 168.27 2.97399 168.778 2.97399C169.303 2.97399 169.767 3.06308 170.169 3.24124C170.571 3.41484 170.906 3.66153 171.176 3.98131C171.445 4.3011 171.649 4.68484 171.786 5.13254C171.923 5.57567 171.991 6.06676 171.991 6.60583V7.36646H166.18V6.1193H170.21V5.98225C170.201 5.69444 170.146 5.43176 170.045 5.19421C169.945 4.95209 169.789 4.76022 169.579 4.6186C169.369 4.47241 169.097 4.39932 168.764 4.39932C168.494 4.39932 168.259 4.45871 168.058 4.57748C167.862 4.69169 167.697 4.85615 167.565 5.07086C167.437 5.28101 167.341 5.53227 167.277 5.82464C167.213 6.11701 167.181 6.44137 167.181 6.7977V7.0718C167.181 7.38245 167.222 7.67025 167.304 7.93522C167.391 8.20018 167.517 8.43088 167.681 8.62732C167.85 8.81919 168.051 8.96995 168.284 9.07959C168.522 9.18466 168.791 9.23719 169.093 9.23719C169.472 9.23719 169.815 9.1641 170.121 9.01791C170.431 8.86716 170.701 8.64559 170.929 8.35322L171.841 9.29887C171.685 9.52728 171.475 9.74656 171.21 9.95671C170.95 10.1669 170.635 10.3382 170.265 10.4706C169.894 10.5986 169.467 10.6625 168.983 10.6625ZM179.179 0V10.5255H177.363V0H179.179ZM180.865 6.89363V6.74973C180.865 6.2061 180.942 5.70586 181.098 5.24903C181.253 4.78763 181.479 4.3879 181.776 4.04984C182.073 3.71178 182.436 3.4491 182.865 3.2618C183.295 3.06993 183.784 2.97399 184.332 2.97399C184.889 2.97399 185.383 3.06993 185.812 3.2618C186.246 3.4491 186.612 3.71178 186.908 4.04984C187.205 4.3879 187.432 4.78763 187.587 5.24903C187.742 5.70586 187.82 6.2061 187.82 6.74973V6.89363C187.82 7.4327 187.742 7.93293 187.587 8.39433C187.432 8.85117 187.205 9.2509 186.908 9.59353C186.612 9.93158 186.248 10.1943 185.819 10.3816C185.389 10.5689 184.898 10.6625 184.346 10.6625C183.797 10.6625 183.306 10.5689 182.872 10.3816C182.438 10.1943 182.073 9.93158 181.776 9.59353C181.479 9.2509 181.253 8.85117 181.098 8.39433C180.942 7.93293 180.865 7.4327 180.865 6.89363ZM182.674 6.74973V6.89363C182.674 7.21799 182.706 7.52178 182.77 7.80502C182.833 8.08826 182.932 8.33723 183.064 8.55194C183.197 8.76665 183.368 8.93568 183.578 9.05903C183.793 9.17781 184.049 9.23719 184.346 9.23719C184.638 9.23719 184.889 9.17781 185.099 9.05903C185.31 8.93568 185.481 8.76665 185.613 8.55194C185.75 8.33723 185.851 8.08826 185.915 7.80502C185.979 7.52178 186.011 7.21799 186.011 6.89363V6.74973C186.011 6.42995 185.979 6.13072 185.915 5.85205C185.851 5.56881 185.75 5.31984 185.613 5.10513C185.481 4.88585 185.307 4.71453 185.093 4.59119C184.882 4.46327 184.629 4.39932 184.332 4.39932C184.04 4.39932 183.788 4.46327 183.578 4.59119C183.368 4.71453 183.197 4.88585 183.064 5.10513C182.932 5.31984 182.833 5.56881 182.77 5.85205C182.706 6.13072 182.674 6.42995 182.674 6.74973ZM194.131 3.11104H195.775V10.2993C195.775 10.9709 195.629 11.5396 195.337 12.0056C195.049 12.4762 194.645 12.8325 194.124 13.0746C193.603 13.3213 192.998 13.4446 192.308 13.4446C192.011 13.4446 191.689 13.4035 191.342 13.3213C190.999 13.2391 190.668 13.1089 190.348 12.9307C190.033 12.7571 189.77 12.531 189.56 12.2523L190.376 11.1833C190.622 11.4711 190.901 11.6881 191.212 11.8343C191.522 11.9851 191.858 12.0604 192.219 12.0604C192.584 12.0604 192.895 11.9919 193.151 11.8549C193.411 11.7224 193.61 11.5259 193.747 11.2655C193.889 11.0097 193.959 10.6945 193.959 10.3199V4.80362L194.131 3.11104ZM189.122 6.90734V6.76344C189.122 6.19696 189.19 5.68302 189.327 5.22162C189.464 4.75565 189.661 4.35592 189.916 4.02243C190.177 3.68894 190.49 3.43083 190.855 3.24809C191.225 3.06536 191.641 2.97399 192.102 2.97399C192.591 2.97399 193.002 3.06308 193.336 3.24124C193.674 3.41941 193.953 3.67295 194.172 4.00187C194.396 4.33079 194.569 4.72138 194.693 5.17365C194.821 5.62135 194.919 6.11473 194.987 6.6538V7.04439C194.923 7.56975 194.821 8.05171 194.679 8.49027C194.542 8.92883 194.359 9.31257 194.131 9.64149C193.902 9.96585 193.619 10.2171 193.281 10.3953C192.943 10.5734 192.546 10.6625 192.089 10.6625C191.632 10.6625 191.221 10.5689 190.855 10.3816C190.49 10.1943 190.177 9.93158 189.916 9.59353C189.661 9.25547 189.464 8.85802 189.327 8.40119C189.19 7.94435 189.122 7.4464 189.122 6.90734ZM190.931 6.76344V6.90734C190.931 7.22712 190.963 7.52635 191.027 7.80502C191.091 8.08369 191.189 8.33038 191.321 8.54509C191.454 8.75523 191.62 8.91969 191.821 9.03847C192.022 9.15725 192.262 9.21664 192.541 9.21664C192.916 9.21664 193.222 9.13897 193.459 8.98365C193.701 8.82376 193.884 8.60676 194.007 8.33266C194.135 8.05399 194.218 7.74106 194.254 7.39387V6.31802C194.231 6.04392 194.181 5.79038 194.103 5.55739C194.03 5.32441 193.927 5.1234 193.795 4.95437C193.662 4.78534 193.493 4.65286 193.288 4.55692C193.082 4.46099 192.838 4.41302 192.555 4.41302C192.281 4.41302 192.041 4.47469 191.835 4.59804C191.63 4.71682 191.461 4.88356 191.328 5.09827C191.196 5.31299 191.095 5.56196 191.027 5.8452C190.963 6.12844 190.931 6.43451 190.931 6.76344ZM199.606 3.11104V10.5255H197.79V3.11104H199.606ZM197.666 1.17178C197.666 0.902248 197.758 0.678399 197.94 0.500234C198.128 0.322068 198.379 0.232986 198.694 0.232986C199.009 0.232986 199.258 0.322068 199.441 0.500234C199.628 0.678399 199.722 0.902248 199.722 1.17178C199.722 1.43674 199.628 1.65831 199.441 1.83647C199.258 2.01464 199.009 2.10372 198.694 2.10372C198.379 2.10372 198.128 2.01464 197.94 1.83647C197.758 1.65831 197.666 1.43674 197.666 1.17178ZM203.388 4.69397V10.5255H201.579V3.11104H203.278L203.388 4.69397ZM203.1 6.55101H202.566C202.57 6.01194 202.643 5.52313 202.785 5.08457C202.927 4.64601 203.125 4.26912 203.381 3.9539C203.641 3.63869 203.95 3.39656 204.306 3.22754C204.663 3.05851 205.06 2.97399 205.499 2.97399C205.855 2.97399 206.177 3.02424 206.465 3.12475C206.753 3.22525 206.999 3.38514 207.205 3.60442C207.415 3.82371 207.575 4.11151 207.684 4.46784C207.799 4.8196 207.856 5.2536 207.856 5.76982V10.5255H206.033V5.75612C206.033 5.41806 205.983 5.15081 205.882 4.95437C205.786 4.75793 205.645 4.6186 205.457 4.53637C205.275 4.45414 205.049 4.41302 204.779 4.41302C204.5 4.41302 204.256 4.47013 204.046 4.58433C203.84 4.69397 203.667 4.84701 203.525 5.04345C203.388 5.23989 203.283 5.46603 203.21 5.72185C203.137 5.97768 203.1 6.25406 203.1 6.55101ZM215.283 0V10.5255H213.467V0H215.283ZM214.996 6.55101H214.461C214.461 6.03478 214.53 5.55968 214.667 5.12568C214.804 4.69169 214.998 4.3148 215.249 3.99502C215.5 3.67067 215.8 3.41941 216.147 3.24124C216.499 3.06308 216.887 2.97399 217.312 2.97399C217.677 2.97399 218.008 3.02653 218.305 3.1316C218.607 3.2321 218.865 3.39428 219.08 3.61813C219.294 3.84198 219.459 4.13435 219.573 4.49525C219.692 4.85158 219.751 5.28558 219.751 5.79723V10.5255H217.928V5.78353C217.928 5.4409 217.878 5.17137 217.778 4.97493C217.677 4.77392 217.533 4.63002 217.346 4.54322C217.163 4.45642 216.937 4.41302 216.668 4.41302C216.375 4.41302 216.124 4.47013 215.914 4.58433C215.704 4.69397 215.53 4.84701 215.393 5.04345C215.261 5.23989 215.16 5.46603 215.092 5.72185C215.028 5.97768 214.996 6.25406 214.996 6.55101ZM224.959 10.6625C224.397 10.6625 223.892 10.5712 223.444 10.3884C222.997 10.2057 222.615 9.95214 222.3 9.62779C221.989 9.29887 221.75 8.91741 221.581 8.48342C221.416 8.04486 221.334 7.57432 221.334 7.0718V6.7977C221.334 6.22665 221.416 5.70815 221.581 5.24218C221.745 4.77164 221.978 4.36734 222.28 4.02928C222.581 3.69122 222.942 3.43083 223.362 3.24809C223.783 3.06536 224.246 2.97399 224.753 2.97399C225.279 2.97399 225.742 3.06308 226.144 3.24124C226.546 3.41484 226.882 3.66153 227.152 3.98131C227.421 4.3011 227.624 4.68484 227.762 5.13254C227.899 5.57567 227.967 6.06676 227.967 6.60583V7.36646H222.156V6.1193H226.185V5.98225C226.176 5.69444 226.121 5.43176 226.021 5.19421C225.92 4.95209 225.765 4.76022 225.555 4.6186C225.345 4.47241 225.073 4.39932 224.74 4.39932C224.47 4.39932 224.235 4.45871 224.034 4.57748C223.837 4.69169 223.673 4.85615 223.54 5.07086C223.412 5.28101 223.317 5.53227 223.253 5.82464C223.189 6.11701 223.157 6.44137 223.157 6.7977V7.0718C223.157 7.38245 223.198 7.67025 223.28 7.93522C223.367 8.20018 223.492 8.43088 223.657 8.62732C223.826 8.81919 224.027 8.96995 224.26 9.07959C224.497 9.18466 224.767 9.23719 225.068 9.23719C225.448 9.23719 225.79 9.1641 226.096 9.01791C226.407 8.86716 226.677 8.64559 226.905 8.35322L227.816 9.29887C227.661 9.52728 227.451 9.74656 227.186 9.95671C226.926 10.1669 226.61 10.3382 226.24 10.4706C225.87 10.5986 225.443 10.6625 224.959 10.6625ZM231.27 4.62545V10.5255H229.461V3.11104H231.174L231.27 4.62545ZM233.524 3.06308L233.497 4.74879C233.396 4.73052 233.282 4.71682 233.154 4.70768C233.031 4.69854 232.914 4.69397 232.805 4.69397C232.526 4.69397 232.282 4.73281 232.071 4.81047C231.861 4.88356 231.685 4.99092 231.544 5.13254C231.407 5.27415 231.302 5.44775 231.229 5.65333C231.156 5.85433 231.114 6.08275 231.105 6.33858L230.715 6.29061C230.715 5.82007 230.763 5.38379 230.859 4.98178C230.955 4.57977 231.094 4.228 231.277 3.92649C231.459 3.62498 231.688 3.392 231.962 3.22754C232.241 3.05851 232.56 2.97399 232.921 2.97399C233.022 2.97399 233.129 2.98313 233.243 3.0014C233.362 3.01511 233.456 3.03567 233.524 3.06308ZM237.992 10.6625C237.43 10.6625 236.925 10.5712 236.477 10.3884C236.03 10.2057 235.648 9.95214 235.333 9.62779C235.022 9.29887 234.783 8.91741 234.613 8.48342C234.449 8.04486 234.367 7.57432 234.367 7.0718V6.7977C234.367 6.22665 234.449 5.70815 234.613 5.24218C234.778 4.77164 235.011 4.36734 235.312 4.02928C235.614 3.69122 235.975 3.43083 236.395 3.24809C236.815 3.06536 237.279 2.97399 237.786 2.97399C238.312 2.97399 238.775 3.06308 239.177 3.24124C239.579 3.41484 239.915 3.66153 240.185 3.98131C240.454 4.3011 240.657 4.68484 240.794 5.13254C240.932 5.57567 241 6.06676 241 6.60583V7.36646H235.189V6.1193H239.218V5.98225C239.209 5.69444 239.154 5.43176 239.054 5.19421C238.953 4.95209 238.798 4.76022 238.588 4.6186C238.378 4.47241 238.106 4.39932 237.773 4.39932C237.503 4.39932 237.268 4.45871 237.067 4.57748C236.87 4.69169 236.706 4.85615 236.573 5.07086C236.445 5.28101 236.349 5.53227 236.286 5.82464C236.222 6.11701 236.19 6.44137 236.19 6.7977V7.0718C236.19 7.38245 236.231 7.67025 236.313 7.93522C236.4 8.20018 236.525 8.43088 236.69 8.62732C236.859 8.81919 237.06 8.96995 237.293 9.07959C237.53 9.18466 237.8 9.23719 238.101 9.23719C238.481 9.23719 238.823 9.1641 239.129 9.01791C239.44 8.86716 239.709 8.64559 239.938 8.35322L240.849 9.29887C240.694 9.52728 240.484 9.74656 240.219 9.95671C239.958 10.1669 239.643 10.3382 239.273 10.4706C238.903 10.5986 238.476 10.6625 237.992 10.6625Z" fill="#FE0000"/>
</svg>
