<svg width="80" height="11" viewBox="0 0 80 11" fill="none" xmlns="http://www.w3.org/2000/svg">
<path d="M6.1623 7.26836H8.05152C8.00114 7.93703 7.81566 8.53013 7.49506 9.04766C7.17447 9.56061 6.72792 9.96365 6.15543 10.2568C5.58294 10.5499 4.88908 10.6964 4.07385 10.6964C3.4464 10.6964 2.88078 10.5865 2.37699 10.3667C1.87777 10.1423 1.44955 9.82396 1.09231 9.41176C0.739659 8.99499 0.469443 8.49578 0.281666 7.91413C0.0938887 7.32789 0 6.67067 0 5.94246V5.17991C0 4.4517 0.0961786 3.79448 0.288536 3.20824C0.480893 2.62201 0.755689 2.1228 1.11292 1.71061C1.47474 1.29383 1.90754 0.973236 2.41134 0.748819C2.91971 0.524402 3.48762 0.412194 4.11507 0.412194C4.9303 0.412194 5.61958 0.563332 6.18291 0.865608C6.74624 1.1633 7.18363 1.57321 7.49506 2.09532C7.8065 2.61743 7.99428 3.2174 8.05839 3.89523H6.16917C6.13253 3.47388 6.04093 3.11665 5.89438 2.82353C5.7524 2.53041 5.53714 2.30829 5.2486 2.15715C4.96465 2.00143 4.5868 1.92357 4.11507 1.92357C3.74868 1.92357 3.42579 1.99227 3.14641 2.12967C2.87162 2.26707 2.64262 2.47316 2.45942 2.74796C2.27623 3.01818 2.13883 3.35709 2.04723 3.76471C1.95563 4.16774 1.90983 4.63489 1.90983 5.16617V5.94246C1.90983 6.45084 1.95105 6.90654 2.03349 7.30957C2.11593 7.71261 2.24417 8.05381 2.41821 8.33319C2.59224 8.61257 2.81666 8.82553 3.09146 8.97209C3.36625 9.11865 3.69372 9.19193 4.07385 9.19193C4.53642 9.19193 4.91198 9.11865 5.20052 8.97209C5.49363 8.82553 5.71576 8.61028 5.8669 8.32632C6.02261 8.04236 6.12108 7.68971 6.1623 7.26836ZM9.05453 6.91799V6.77372C9.05453 6.22871 9.13239 5.72721 9.28811 5.26921C9.44382 4.80664 9.67053 4.4059 9.96823 4.06698C10.2659 3.72807 10.63 3.46472 11.0605 3.27694C11.4911 3.08459 11.9811 2.98841 12.5307 2.98841C13.0895 2.98841 13.5841 3.08459 14.0146 3.27694C14.4497 3.46472 14.8161 3.72807 15.1138 4.06698C15.4115 4.4059 15.6382 4.80664 15.7939 5.26921C15.9496 5.72721 16.0275 6.22871 16.0275 6.77372V6.91799C16.0275 7.45842 15.9496 7.95993 15.7939 8.4225C15.6382 8.88049 15.4115 9.28124 15.1138 9.62473C14.8161 9.96365 14.452 10.227 14.0215 10.4148C13.591 10.6025 13.0986 10.6964 12.5444 10.6964C11.9948 10.6964 11.5025 10.6025 11.0674 10.4148C10.6323 10.227 10.2659 9.96365 9.96823 9.62473C9.67053 9.28124 9.44382 8.88049 9.28811 8.4225C9.13239 7.95993 9.05453 7.45842 9.05453 6.91799ZM10.8682 6.77372V6.91799C10.8682 7.24317 10.9002 7.54773 10.9644 7.83169C11.0285 8.11564 11.127 8.36525 11.2598 8.58051C11.3926 8.79576 11.5643 8.96522 11.775 9.08888C11.9903 9.20796 12.2467 9.2675 12.5444 9.2675C12.8376 9.2675 13.0895 9.20796 13.3001 9.08888C13.5108 8.96522 13.6826 8.79576 13.8154 8.58051C13.9528 8.36525 14.0535 8.11564 14.1176 7.83169C14.1818 7.54773 14.2138 7.24317 14.2138 6.91799V6.77372C14.2138 6.45313 14.1818 6.15314 14.1176 5.87377C14.0535 5.58981 13.9528 5.3402 13.8154 5.12495C13.6826 4.90511 13.5085 4.73336 13.2933 4.6097C13.0826 4.48147 12.8284 4.41735 12.5307 4.41735C12.2376 4.41735 11.9857 4.48147 11.775 4.6097C11.5643 4.73336 11.3926 4.90511 11.2598 5.12495C11.127 5.3402 11.0285 5.58981 10.9644 5.87377C10.9002 6.15314 10.8682 6.45313 10.8682 6.77372ZM19.2701 0.0068699V10.559H17.4495V0.0068699H19.2701ZM20.6784 6.91799V6.77372C20.6784 6.22871 20.7563 5.72721 20.912 5.26921C21.0677 4.80664 21.2944 4.4059 21.5921 4.06698C21.8898 3.72807 22.2539 3.46472 22.6844 3.27694C23.1149 3.08459 23.605 2.98841 24.1546 2.98841C24.7133 2.98841 25.208 3.08459 25.6385 3.27694C26.0736 3.46472 26.44 3.72807 26.7377 4.06698C27.0354 4.4059 27.2621 4.80664 27.4178 5.26921C27.5735 5.72721 27.6514 6.22871 27.6514 6.77372V6.91799C27.6514 7.45842 27.5735 7.95993 27.4178 8.4225C27.2621 8.88049 27.0354 9.28124 26.7377 9.62473C26.44 9.96365 26.0759 10.227 25.6453 10.4148C25.2148 10.6025 24.7225 10.6964 24.1683 10.6964C23.6187 10.6964 23.1264 10.6025 22.6913 10.4148C22.2562 10.227 21.8898 9.96365 21.5921 9.62473C21.2944 9.28124 21.0677 8.88049 20.912 8.4225C20.7563 7.95993 20.6784 7.45842 20.6784 6.91799ZM22.4921 6.77372V6.91799C22.4921 7.24317 22.5241 7.54773 22.5882 7.83169C22.6524 8.11564 22.7508 8.36525 22.8836 8.58051C23.0165 8.79576 23.1882 8.96522 23.3989 9.08888C23.6141 9.20796 23.8706 9.2675 24.1683 9.2675C24.4614 9.2675 24.7133 9.20796 24.924 9.08888C25.1347 8.96522 25.3064 8.79576 25.4392 8.58051C25.5766 8.36525 25.6774 8.11564 25.7415 7.83169C25.8056 7.54773 25.8377 7.24317 25.8377 6.91799V6.77372C25.8377 6.45313 25.8056 6.15314 25.7415 5.87377C25.6774 5.58981 25.5766 5.3402 25.4392 5.12495C25.3064 4.90511 25.1324 4.73336 24.9171 4.6097C24.7065 4.48147 24.4523 4.41735 24.1546 4.41735C23.8615 4.41735 23.6096 4.48147 23.3989 4.6097C23.1882 4.73336 23.0165 4.90511 22.8836 5.12495C22.7508 5.3402 22.6524 5.58981 22.5882 5.87377C22.5241 6.15314 22.4921 6.45313 22.4921 6.77372ZM33.3946 8.79347V3.12581H35.222V10.559H33.5045L33.3946 8.79347ZM33.6282 7.25462L34.1915 7.24088C34.1915 7.74009 34.1365 8.20037 34.0266 8.62173C33.9167 9.04308 33.745 9.40947 33.5114 9.72091C33.2824 10.0278 32.9916 10.2682 32.6389 10.4422C32.2862 10.6117 31.8695 10.6964 31.3886 10.6964C31.0222 10.6964 30.6878 10.6461 30.3856 10.5453C30.0833 10.44 29.8222 10.2774 29.6024 10.0575C29.3871 9.83312 29.22 9.54687 29.1009 9.1988C28.9818 8.84614 28.9223 8.4225 28.9223 7.92787V3.12581H30.7359V7.94161C30.7359 8.18892 30.7634 8.39502 30.8184 8.5599C30.8779 8.72477 30.9581 8.85988 31.0588 8.96522C31.1642 9.06598 31.2855 9.13926 31.4229 9.18506C31.5649 9.22628 31.716 9.24689 31.8763 9.24689C32.316 9.24689 32.6618 9.15987 32.9137 8.98583C33.1702 8.80721 33.3534 8.56906 33.4633 8.27136C33.5732 7.96909 33.6282 7.63017 33.6282 7.25462ZM38.6432 4.64405V10.559H36.8295V3.12581H38.547L38.6432 4.64405ZM40.9034 3.07772L40.8759 4.76771C40.7752 4.74939 40.6607 4.73565 40.5324 4.72649C40.4088 4.71733 40.292 4.71275 40.1821 4.71275C39.9027 4.71275 39.6576 4.75168 39.447 4.82954C39.2363 4.90282 39.06 5.01045 38.918 5.15243C38.7806 5.2944 38.6753 5.46844 38.602 5.67454C38.5287 5.87606 38.4875 6.10505 38.4783 6.36153L38.0867 6.31344C38.0867 5.84171 38.1348 5.40432 38.231 5.00129C38.3272 4.59825 38.4669 4.2456 38.6501 3.94332C38.8333 3.64105 39.0623 3.40747 39.3371 3.24259C39.6164 3.07314 39.937 2.98841 40.2988 2.98841C40.3996 2.98841 40.5072 2.99757 40.6217 3.01589C40.7408 3.02963 40.8347 3.05024 40.9034 3.07772ZM45.4444 9.67282C45.4444 9.39802 45.5383 9.16674 45.7261 8.97896C45.9138 8.79118 46.168 8.69729 46.4886 8.69729C46.8092 8.69729 47.0634 8.79118 47.2512 8.97896C47.439 9.16674 47.5328 9.39802 47.5328 9.67282C47.5328 9.94304 47.439 10.172 47.2512 10.3598C47.0634 10.543 46.8092 10.6346 46.4886 10.6346C46.168 10.6346 45.9138 10.543 45.7261 10.3598C45.5383 10.172 45.4444 9.94304 45.4444 9.67282ZM45.4513 3.90897C45.4513 3.63418 45.5452 3.40289 45.7329 3.21511C45.9207 3.02734 46.1749 2.93345 46.4955 2.93345C46.8161 2.93345 47.0703 3.02734 47.2581 3.21511C47.4458 3.40289 47.5397 3.63418 47.5397 3.90897C47.5397 4.17919 47.4458 4.40819 47.2581 4.59596C47.0703 4.77916 46.8161 4.87076 46.4955 4.87076C46.1749 4.87076 45.9207 4.77916 45.7329 4.59596C45.5452 4.40819 45.4513 4.17919 45.4513 3.90897Z" fill="#3C4242"/>
<path d="M56.7248 6.91112H54.1486V5.42722H56.7248C57.1461 5.42722 57.4873 5.35852 57.7484 5.22112C58.014 5.07915 58.2087 4.88679 58.3323 4.64405C58.456 4.39674 58.5178 4.11507 58.5178 3.79906C58.5178 3.4922 58.456 3.20595 58.3323 2.94032C58.2087 2.67468 58.014 2.45942 57.7484 2.29455C57.4873 2.12967 57.1461 2.04723 56.7248 2.04723H54.7669V10.559H52.8776V0.556462H56.7248C57.5034 0.556462 58.1675 0.69615 58.717 0.975526C59.2712 1.25032 59.6926 1.63275 59.9811 2.1228C60.2742 2.60827 60.4208 3.16244 60.4208 3.78532C60.4208 4.43109 60.2742 4.98755 59.9811 5.4547C59.6926 5.92185 59.2712 6.28138 58.717 6.53328C58.1675 6.78517 57.5034 6.91112 56.7248 6.91112ZM63.6909 3.12581V10.559H61.8703V3.12581H63.6909ZM61.7467 1.18162C61.7467 0.911407 61.8383 0.68699 62.0215 0.508373C62.2092 0.329755 62.4611 0.240447 62.7772 0.240447C63.0932 0.240447 63.3428 0.329755 63.526 0.508373C63.7138 0.68699 63.8076 0.911407 63.8076 1.18162C63.8076 1.44726 63.7138 1.66939 63.526 1.848C63.3428 2.02662 63.0932 2.11593 62.7772 2.11593C62.4611 2.11593 62.2092 2.02662 62.0215 1.848C61.8383 1.66939 61.7467 1.44726 61.7467 1.18162ZM67.2014 4.71275V10.559H65.3877V3.12581H67.0915L67.2014 4.71275ZM66.9128 6.5745H66.377C66.3816 6.03406 66.4548 5.54401 66.5968 5.10434C66.7388 4.66466 66.938 4.28682 67.1945 3.9708C67.4556 3.65479 67.7647 3.41205 68.1219 3.24259C68.4792 3.07314 68.8776 2.98841 69.3173 2.98841C69.6745 2.98841 69.9974 3.03879 70.286 3.13954C70.5745 3.2403 70.8218 3.4006 71.0279 3.62044C71.2386 3.84027 71.3989 4.12881 71.5088 4.48605C71.6233 4.8387 71.6805 5.27379 71.6805 5.79133V10.559H69.8532V5.77759C69.8532 5.43867 69.8028 5.17075 69.702 4.97381C69.6058 4.77687 69.4639 4.63718 69.2761 4.55474C69.0929 4.47231 68.8662 4.43109 68.596 4.43109C68.3166 4.43109 68.0716 4.48834 67.8609 4.60283C67.6548 4.71275 67.4807 4.86618 67.3388 5.06312C67.2014 5.26005 67.096 5.48676 67.0228 5.74324C66.9495 5.99971 66.9128 6.2768 66.9128 6.5745ZM75.0949 0V10.559H73.2812V0H75.0949ZM79.7527 3.12581L76.517 6.75998L74.7651 8.53929L74.1881 7.13096L75.5414 5.42722L77.5612 3.12581H79.7527ZM77.8978 10.559L75.5964 7.09661L76.8055 5.92185L80 10.559H77.8978Z" fill="#BEBCBD"/>
</svg>
