<svg width="83" height="11" viewBox="0 0 83 11" fill="none" xmlns="http://www.w3.org/2000/svg">
<path d="M6.13357 7.27325H8.19881C8.15737 7.95015 7.97087 8.55108 7.63933 9.07602C7.31239 9.60097 6.85421 10.0108 6.2648 10.3055C5.68 10.6002 4.97546 10.7476 4.15121 10.7476C3.50654 10.7476 2.92864 10.637 2.41751 10.416C1.90638 10.1904 1.46892 9.86804 1.10515 9.44901C0.745974 9.02997 0.47199 8.52345 0.283194 7.92943C0.094398 7.33541 0 6.67002 0 5.93326V5.23563C0 4.49887 0.0967004 3.83348 0.290101 3.23946C0.488107 2.64084 0.768998 2.13201 1.13278 1.71298C1.50116 1.29394 1.94091 0.971608 2.45205 0.745974C2.96318 0.52034 3.53417 0.407523 4.16502 0.407523C5.00309 0.407523 5.70993 0.559481 6.28552 0.863396C6.86573 1.16731 7.31469 1.58635 7.63242 2.1205C7.95476 2.65466 8.14816 3.26249 8.21262 3.94399H6.14047C6.11745 3.53877 6.03687 3.19572 5.89872 2.91483C5.76058 2.62933 5.55106 2.41521 5.27017 2.27246C4.99388 2.12511 4.6255 2.05143 4.16502 2.05143C3.81966 2.05143 3.51805 2.1159 3.26018 2.24483C3.00232 2.37376 2.78589 2.56947 2.61091 2.83194C2.43593 3.09441 2.30469 3.42596 2.2172 3.82657C2.13432 4.22258 2.09287 4.68767 2.09287 5.22182V5.93326C2.09287 6.4536 2.13201 6.91177 2.21029 7.30779C2.28858 7.69919 2.4083 8.03074 2.56947 8.30242C2.73524 8.56949 2.94706 8.77211 3.20493 8.91025C3.4674 9.04379 3.78283 9.11056 4.15121 9.11056C4.58406 9.11056 4.94093 9.04148 5.22182 8.90334C5.50271 8.7652 5.71683 8.56029 5.86419 8.2886C6.01614 8.01692 6.10594 7.67847 6.13357 7.27325ZM9.40038 6.94861V6.80356C9.40038 6.25559 9.47866 5.75137 9.63522 5.29089C9.79179 4.82581 10.0197 4.42289 10.319 4.08214C10.6183 3.74138 10.9867 3.47661 11.4242 3.28781C11.8616 3.09441 12.3636 2.99771 12.9299 2.99771C13.4963 2.99771 14.0006 3.09441 14.4426 3.28781C14.8847 3.47661 15.2554 3.74138 15.5547 4.08214C15.8586 4.42289 16.0888 4.82581 16.2454 5.29089C16.4019 5.75137 16.4802 6.25559 16.4802 6.80356V6.94861C16.4802 7.49198 16.4019 7.9962 16.2454 8.46128C16.0888 8.92176 15.8586 9.32468 15.5547 9.67004C15.2554 10.0108 14.887 10.2756 14.4495 10.4644C14.0121 10.6532 13.5101 10.7476 12.9438 10.7476C12.3774 10.7476 11.8731 10.6532 11.4311 10.4644C10.9936 10.2756 10.6229 10.0108 10.319 9.67004C10.0197 9.32468 9.79179 8.92176 9.63522 8.46128C9.47866 7.9962 9.40038 7.49198 9.40038 6.94861ZM11.3896 6.80356V6.94861C11.3896 7.26174 11.4173 7.55414 11.4725 7.82582C11.5278 8.0975 11.6153 8.33695 11.735 8.54417C11.8593 8.74678 12.0205 8.90564 12.2185 9.02076C12.4165 9.13588 12.6583 9.19344 12.9438 9.19344C13.22 9.19344 13.4572 9.13588 13.6552 9.02076C13.8532 8.90564 14.0121 8.74678 14.1318 8.54417C14.2515 8.33695 14.339 8.0975 14.3943 7.82582C14.4541 7.55414 14.4841 7.26174 14.4841 6.94861V6.80356C14.4841 6.49965 14.4541 6.21415 14.3943 5.94707C14.339 5.67539 14.2492 5.43594 14.1249 5.22873C14.0052 5.01691 13.8463 4.85114 13.6483 4.73141C13.4503 4.61169 13.2108 4.55182 12.9299 4.55182C12.6491 4.55182 12.4096 4.61169 12.2116 4.73141C12.0182 4.85114 11.8593 5.01691 11.735 5.22873C11.6153 5.43594 11.5278 5.67539 11.4725 5.94707C11.4173 6.21415 11.3896 6.49965 11.3896 6.80356ZM20.0855 0V10.6094H18.0893V0H20.0855ZM21.6946 6.94861V6.80356C21.6946 6.25559 21.7729 5.75137 21.9294 5.29089C22.086 4.82581 22.3139 4.42289 22.6132 4.08214C22.9126 3.74138 23.2809 3.47661 23.7184 3.28781C24.1558 3.09441 24.6578 2.99771 25.2242 2.99771C25.7905 2.99771 26.2948 3.09441 26.7368 3.28781C27.1789 3.47661 27.5496 3.74138 27.8489 4.08214C28.1528 4.42289 28.383 4.82581 28.5396 5.29089C28.6962 5.75137 28.7744 6.25559 28.7744 6.80356V6.94861C28.7744 7.49198 28.6962 7.9962 28.5396 8.46128C28.383 8.92176 28.1528 9.32468 27.8489 9.67004C27.5496 10.0108 27.1812 10.2756 26.7437 10.4644C26.3063 10.6532 25.8044 10.7476 25.238 10.7476C24.6716 10.7476 24.1674 10.6532 23.7253 10.4644C23.2878 10.2756 22.9172 10.0108 22.6132 9.67004C22.3139 9.32468 22.086 8.92176 21.9294 8.46128C21.7729 7.9962 21.6946 7.49198 21.6946 6.94861ZM23.6839 6.80356V6.94861C23.6839 7.26174 23.7115 7.55414 23.7667 7.82582C23.822 8.0975 23.9095 8.33695 24.0292 8.54417C24.1535 8.74678 24.3147 8.90564 24.5127 9.02076C24.7107 9.13588 24.9525 9.19344 25.238 9.19344C25.5143 9.19344 25.7514 9.13588 25.9494 9.02076C26.1474 8.90564 26.3063 8.74678 26.426 8.54417C26.5457 8.33695 26.6332 8.0975 26.6885 7.82582C26.7483 7.55414 26.7783 7.26174 26.7783 6.94861V6.80356C26.7783 6.49965 26.7483 6.21415 26.6885 5.94707C26.6332 5.67539 26.5434 5.43594 26.4191 5.22873C26.2994 5.01691 26.1405 4.85114 25.9425 4.73141C25.7445 4.61169 25.505 4.55182 25.2242 4.55182C24.9433 4.55182 24.7038 4.61169 24.5058 4.73141C24.3124 4.85114 24.1535 5.01691 24.0292 5.22873C23.9095 5.43594 23.822 5.67539 23.7667 5.94707C23.7115 6.21415 23.6839 6.49965 23.6839 6.80356ZM32.2692 4.76595V10.6094H30.2799V3.13585H32.1518L32.2692 4.76595ZM34.5209 3.0875L34.4864 4.93172C34.3897 4.9179 34.2723 4.90639 34.1341 4.89718C34.0006 4.88337 33.8786 4.87646 33.768 4.87646C33.4872 4.87646 33.2431 4.9133 33.0359 4.98698C32.8333 5.05605 32.6629 5.15966 32.5248 5.2978C32.3912 5.43594 32.2899 5.60402 32.2208 5.80202C32.1564 6.00003 32.1195 6.22566 32.1103 6.47892L31.7097 6.3546C31.7097 5.87109 31.7581 5.42673 31.8548 5.02151C31.9515 4.61169 32.0919 4.25482 32.2761 3.9509C32.4649 3.64699 32.6951 3.41214 32.9668 3.24637C33.2385 3.0806 33.5493 2.99771 33.8993 2.99771C34.0098 2.99771 34.1226 3.00692 34.2377 3.02534C34.3529 3.03915 34.4473 3.05988 34.5209 3.0875ZM39.6248 9.64932C39.6248 9.35461 39.7261 9.10825 39.9287 8.91025C40.1359 8.71224 40.4099 8.61324 40.7506 8.61324C41.0914 8.61324 41.3631 8.71224 41.5657 8.91025C41.7729 9.10825 41.8765 9.35461 41.8765 9.64932C41.8765 9.94402 41.7729 10.1904 41.5657 10.3884C41.3631 10.5864 41.0914 10.6854 40.7506 10.6854C40.4099 10.6854 40.1359 10.5864 39.9287 10.3884C39.7261 10.1904 39.6248 9.94402 39.6248 9.64932ZM39.6248 3.9509C39.6248 3.65619 39.7261 3.40984 39.9287 3.21183C40.1359 3.01383 40.4099 2.91483 40.7506 2.91483C41.0914 2.91483 41.3631 3.01383 41.5657 3.21183C41.7729 3.40984 41.8765 3.65619 41.8765 3.9509C41.8765 4.24561 41.7729 4.49196 41.5657 4.68997C41.3631 4.88797 41.0914 4.98698 40.7506 4.98698C40.4099 4.98698 40.1359 4.88797 39.9287 4.68997C39.7261 4.49196 39.6248 4.24561 39.6248 3.9509Z" fill="#3C4242"/>
<path d="M51.6496 6.06449H49.087L49.0732 4.80048H51.3112C51.6887 4.80048 52.0088 4.74523 52.2712 4.63471C52.5383 4.51959 52.7409 4.35612 52.8791 4.1443C53.0172 3.92788 53.0863 3.66771 53.0863 3.36379C53.0863 3.02764 53.0218 2.75366 52.8929 2.54184C52.764 2.33002 52.566 2.17576 52.2989 2.07906C52.0364 1.98236 51.7003 1.93401 51.2904 1.93401H49.612V10.6094H47.8783V0.552574H51.2904C51.843 0.552574 52.3357 0.605529 52.7686 0.711438C53.206 0.817348 53.5767 0.98312 53.8806 1.20875C54.1891 1.42978 54.4217 1.71068 54.5782 2.05143C54.7394 2.39218 54.82 2.7974 54.82 3.26709C54.82 3.68152 54.721 4.06142 54.523 4.40677C54.325 4.74753 54.0326 5.02612 53.6458 5.24254C53.259 5.45897 52.7778 5.5879 52.2022 5.62934L51.6496 6.06449ZM51.5736 10.6094H48.5414L49.3219 9.23489H51.5736C51.965 9.23489 52.292 9.17042 52.5544 9.04148C52.8169 8.90795 53.0126 8.72606 53.1416 8.49582C53.2751 8.26097 53.3419 7.98699 53.3419 7.67387C53.3419 7.34693 53.2843 7.06373 53.1692 6.82428C53.0541 6.58023 52.8722 6.39374 52.6235 6.2648C52.3749 6.13126 52.0502 6.06449 51.6496 6.06449H49.7018L49.7156 4.80048H52.2505L52.6442 5.27708C53.1968 5.2955 53.6504 5.41752 54.0049 5.64316C54.3641 5.86879 54.6312 6.1612 54.8062 6.52037C54.9812 6.87954 55.0687 7.26634 55.0687 7.68077C55.0687 8.32084 54.9282 8.85729 54.6473 9.29014C54.371 9.72299 53.9727 10.0522 53.4524 10.2779C52.932 10.4989 52.3058 10.6094 51.5736 10.6094ZM58.7154 0V10.6094H57.0438V0H58.7154ZM65.0351 9.11056V5.54646C65.0351 5.27938 64.9868 5.04914 64.8901 4.85574C64.7934 4.66234 64.646 4.51268 64.448 4.40677C64.2546 4.30086 64.0106 4.24791 63.7159 4.24791C63.4442 4.24791 63.2093 4.29396 63.0113 4.38605C62.8133 4.47815 62.6591 4.60248 62.5486 4.75904C62.438 4.9156 62.3828 5.09289 62.3828 5.29089H60.7251C60.7251 4.99619 60.7964 4.71069 60.9392 4.4344C61.0819 4.15812 61.2892 3.91176 61.5608 3.69534C61.8325 3.47891 62.1572 3.30853 62.5347 3.18421C62.9123 3.05988 63.336 2.99771 63.8057 2.99771C64.3674 2.99771 64.8648 3.09211 65.2976 3.28091C65.7351 3.4697 66.0781 3.7552 66.3268 4.13739C66.58 4.51499 66.7067 4.98928 66.7067 5.56027V8.88262C66.7067 9.22337 66.7297 9.52959 66.7757 9.80127C66.8264 10.0684 66.8978 10.3009 66.9899 10.4989V10.6094H65.2838C65.2055 10.4298 65.1434 10.2019 65.0973 9.9256C65.0559 9.64471 65.0351 9.37303 65.0351 9.11056ZM65.2769 6.06449L65.2907 7.09366H64.0958C63.7872 7.09366 63.5156 7.12359 63.2807 7.18346C63.0459 7.23871 62.8502 7.3216 62.6936 7.43211C62.537 7.54263 62.4196 7.67617 62.3413 7.83273C62.2631 7.98929 62.2239 8.16658 62.2239 8.36458C62.2239 8.56259 62.27 8.74448 62.3621 8.91025C62.4542 9.07142 62.5877 9.19805 62.7627 9.29014C62.9423 9.38224 63.1587 9.42829 63.412 9.42829C63.7527 9.42829 64.0497 9.35921 64.303 9.22107C64.5609 9.07832 64.7635 8.90564 64.9108 8.70303C65.0582 8.49582 65.1364 8.30012 65.1457 8.11592L65.6844 8.85499C65.6292 9.04379 65.5348 9.2464 65.4012 9.46282C65.2677 9.67925 65.0927 9.88646 64.8763 10.0845C64.6645 10.2779 64.4089 10.4367 64.1096 10.5611C63.8149 10.6854 63.4741 10.7476 63.0873 10.7476C62.5992 10.7476 62.1641 10.6509 61.7819 10.4575C61.3997 10.2594 61.1004 9.99467 60.8839 9.66313C60.6675 9.32698 60.5593 8.94709 60.5593 8.52345C60.5593 8.12744 60.633 7.77747 60.7803 7.47356C60.9323 7.16504 61.1533 6.90717 61.4434 6.69995C61.7381 6.49274 62.0973 6.33618 62.5209 6.23027C62.9446 6.11975 63.4281 6.06449 63.9714 6.06449H65.2769ZM71.7832 9.42138C72.0549 9.42138 72.2989 9.36842 72.5153 9.26251C72.7364 9.152 72.9136 9.00004 73.0472 8.80664C73.1853 8.61324 73.2613 8.38991 73.2751 8.13665H74.843C74.8338 8.62015 74.6911 9.0599 74.4148 9.45591C74.1385 9.85193 73.7724 10.1674 73.3166 10.4022C72.8607 10.6324 72.3565 10.7476 71.8039 10.7476C71.2329 10.7476 70.7356 10.6509 70.3119 10.4575C69.8883 10.2594 69.536 9.98777 69.2551 9.64241C68.9743 9.29705 68.7624 8.89874 68.6197 8.44747C68.4815 7.9962 68.4125 7.5127 68.4125 6.99696V6.75521C68.4125 6.23948 68.4815 5.75597 68.6197 5.30471C68.7624 4.84883 68.9743 4.44822 69.2551 4.10286C69.536 3.7575 69.8883 3.48812 70.3119 3.29472C70.7356 3.09671 71.2306 2.99771 71.797 2.99771C72.3956 2.99771 72.9206 3.11744 73.3718 3.35688C73.8231 3.59173 74.1777 3.92097 74.4355 4.34461C74.698 4.76364 74.8338 5.25175 74.843 5.80893H73.2751C73.2613 5.53264 73.1922 5.28398 73.0679 5.06296C72.9482 4.83732 72.7778 4.65773 72.5568 4.5242C72.3404 4.39066 72.0802 4.32389 71.7763 4.32389C71.4401 4.32389 71.1615 4.39296 70.9405 4.5311C70.7195 4.66464 70.5468 4.84883 70.4225 5.08368C70.2981 5.31392 70.2083 5.57409 70.1531 5.86419C70.1024 6.14968 70.0771 6.44669 70.0771 6.75521V6.99696C70.0771 7.30548 70.1024 7.60479 70.1531 7.89489C70.2037 8.185 70.2912 8.44517 70.4156 8.6754C70.5445 8.90104 70.7195 9.08293 70.9405 9.22107C71.1615 9.35461 71.4424 9.42138 71.7832 9.42138ZM78.0822 0V10.6094H76.4107V0H78.0822ZM82.7239 3.13585L79.4706 6.7414L77.6885 8.56489L77.2534 7.15583L78.6003 5.4912L80.7139 3.13585H82.7239ZM81.073 10.6094L78.6486 7.10057L79.6985 5.93326L83.0001 10.6094H81.073Z" fill="#807D7E"/>
</svg>
