<svg width="88" height="11" viewBox="0 0 88 11" fill="none" xmlns="http://www.w3.org/2000/svg">
<path d="M6.18427 7.28737H8.08023C8.02967 7.95842 7.84352 8.55364 7.52178 9.07302C7.20004 9.5878 6.75191 9.99227 6.17737 10.2864C5.60284 10.5806 4.90651 10.7277 4.08837 10.7277C3.45869 10.7277 2.89105 10.6174 2.38546 10.3967C1.88447 10.1715 1.45472 9.85208 1.09621 9.43842C0.742296 9.02016 0.471117 8.51917 0.28267 7.93544C0.0942233 7.34712 0 6.68756 0 5.95675V5.19148C0 4.46067 0.0965215 3.80111 0.289564 3.21279C0.482607 2.62446 0.758383 2.12347 1.11689 1.70981C1.48 1.29155 1.91434 0.969811 2.41993 0.744594C2.93012 0.519377 3.50005 0.406769 4.12974 0.406769C4.94787 0.406769 5.63961 0.558446 6.20495 0.861799C6.77029 1.16056 7.20923 1.57192 7.52178 2.09589C7.83433 2.61987 8.02277 3.22198 8.08712 3.90223H6.19116C6.15439 3.47937 6.06247 3.12086 5.91539 2.8267C5.7729 2.53254 5.55688 2.30962 5.26731 2.15794C4.98235 2.00167 4.60315 1.92353 4.12974 1.92353C3.76204 1.92353 3.438 1.99248 3.15763 2.13037C2.88186 2.26825 2.65204 2.47509 2.46819 2.75086C2.28434 3.02204 2.14645 3.36216 2.05453 3.77123C1.9626 4.1757 1.91664 4.64452 1.91664 5.17769V5.95675C1.91664 6.46694 1.95801 6.92427 2.04074 7.32874C2.12347 7.73321 2.25217 8.07563 2.42683 8.356C2.60148 8.63637 2.8267 8.8501 3.10248 8.99718C3.37825 9.14426 3.70688 9.2178 4.08837 9.2178C4.5526 9.2178 4.92949 9.14426 5.21905 8.99718C5.51321 8.8501 5.73613 8.63408 5.88781 8.34911C6.04408 8.06414 6.1429 7.71023 6.18427 7.28737ZM9.08681 6.93576V6.79097C9.08681 6.24402 9.16494 5.74073 9.32122 5.2811C9.47749 4.81688 9.705 4.41471 10.0038 4.07458C10.3025 3.73446 10.6679 3.47018 11.1 3.28173C11.532 3.08869 12.0238 2.99217 12.5754 2.99217C13.1361 2.99217 13.6325 3.08869 14.0646 3.28173C14.5012 3.47018 14.8689 3.73446 15.1677 4.07458C15.4664 4.41471 15.6939 4.81688 15.8502 5.2811C16.0065 5.74073 16.0846 6.24402 16.0846 6.79097V6.93576C16.0846 7.47812 16.0065 7.98141 15.8502 8.44563C15.6939 8.90525 15.4664 9.30743 15.1677 9.65215C14.8689 9.99227 14.5035 10.2566 14.0715 10.445C13.6394 10.6334 13.1453 10.7277 12.5892 10.7277C12.0376 10.7277 11.5435 10.6334 11.1069 10.445C10.6702 10.2566 10.3025 9.99227 10.0038 9.65215C9.705 9.30743 9.47749 8.90525 9.32122 8.44563C9.16494 7.98141 9.08681 7.47812 9.08681 6.93576ZM10.9069 6.79097V6.93576C10.9069 7.26209 10.9391 7.56774 11.0034 7.85271C11.0678 8.13768 11.1666 8.38818 11.2999 8.6042C11.4332 8.82022 11.6056 8.99029 11.817 9.11438C12.033 9.23389 12.2904 9.29364 12.5892 9.29364C12.8833 9.29364 13.1361 9.23389 13.3475 9.11438C13.559 8.99029 13.7313 8.82022 13.8646 8.6042C14.0025 8.38818 14.1036 8.13768 14.168 7.85271C14.2323 7.56774 14.2645 7.26209 14.2645 6.93576V6.79097C14.2645 6.46924 14.2323 6.16818 14.168 5.88781C14.1036 5.60284 14.0025 5.35235 13.8646 5.13632C13.7313 4.9157 13.5567 4.74334 13.3406 4.61924C13.1292 4.49055 12.8741 4.4262 12.5754 4.4262C12.2812 4.4262 12.0284 4.49055 11.817 4.61924C11.6056 4.74334 11.4332 4.9157 11.2999 5.13632C11.1666 5.35235 11.0678 5.60284 11.0034 5.88781C10.9391 6.16818 10.9069 6.46924 10.9069 6.79097ZM19.3388 0V10.5898H17.5118V0H19.3388ZM20.7521 6.93576V6.79097C20.7521 6.24402 20.8303 5.74073 20.9865 5.2811C21.1428 4.81688 21.3703 4.41471 21.6691 4.07458C21.9678 3.73446 22.3332 3.47018 22.7653 3.28173C23.1973 3.08869 23.6891 2.99217 24.2407 2.99217C24.8014 2.99217 25.2978 3.08869 25.7299 3.28173C26.1665 3.47018 26.5342 3.73446 26.833 4.07458C27.1317 4.41471 27.3592 4.81688 27.5155 5.2811C27.6718 5.74073 27.7499 6.24402 27.7499 6.79097V6.93576C27.7499 7.47812 27.6718 7.98141 27.5155 8.44563C27.3592 8.90525 27.1317 9.30743 26.833 9.65215C26.5342 9.99227 26.1688 10.2566 25.7368 10.445C25.3047 10.6334 24.8106 10.7277 24.2545 10.7277C23.7029 10.7277 23.2088 10.6334 22.7722 10.445C22.3355 10.2566 21.9678 9.99227 21.6691 9.65215C21.3703 9.30743 21.1428 8.90525 20.9865 8.44563C20.8303 7.98141 20.7521 7.47812 20.7521 6.93576ZM22.5722 6.79097V6.93576C22.5722 7.26209 22.6044 7.56774 22.6688 7.85271C22.7331 8.13768 22.8319 8.38818 22.9652 8.6042C23.0985 8.82022 23.2709 8.99029 23.4823 9.11438C23.6983 9.23389 23.9557 9.29364 24.2545 9.29364C24.5486 9.29364 24.8014 9.23389 25.0128 9.11438C25.2243 8.99029 25.3966 8.82022 25.5299 8.6042C25.6678 8.38818 25.7689 8.13768 25.8333 7.85271C25.8976 7.56774 25.9298 7.26209 25.9298 6.93576V6.79097C25.9298 6.46924 25.8976 6.16818 25.8333 5.88781C25.7689 5.60284 25.6678 5.35235 25.5299 5.13632C25.3966 4.9157 25.222 4.74334 25.006 4.61924C24.7945 4.49055 24.5394 4.4262 24.2407 4.4262C23.9465 4.4262 23.6937 4.49055 23.4823 4.61924C23.2709 4.74334 23.0985 4.9157 22.9652 5.13632C22.8319 5.35235 22.7331 5.60284 22.6688 5.88781C22.6044 6.16818 22.5722 6.46924 22.5722 6.79097ZM33.5136 8.81793V3.13005H35.3475V10.5898H33.6239L33.5136 8.81793ZM33.748 7.27358L34.3134 7.25979C34.3134 7.76079 34.2582 8.22271 34.1479 8.64557C34.0376 9.06842 33.8652 9.43612 33.6308 9.74867C33.401 10.0566 33.1092 10.2979 32.7552 10.4726C32.4013 10.6426 31.9831 10.7277 31.5005 10.7277C31.1328 10.7277 30.7972 10.6771 30.4939 10.576C30.1905 10.4703 29.9285 10.3071 29.7079 10.0865C29.4919 9.86128 29.3241 9.57401 29.2046 9.22469C29.0851 8.87078 29.0254 8.44563 29.0254 7.94923V3.13005H30.8455V7.96302C30.8455 8.21122 30.8731 8.41805 30.9282 8.58352C30.988 8.74898 31.0684 8.88457 31.1695 8.99029C31.2753 9.0914 31.3971 9.16494 31.5349 9.21091C31.6774 9.25227 31.8291 9.27296 31.99 9.27296C32.4312 9.27296 32.7782 9.18563 33.031 9.01097C33.2884 8.83171 33.4723 8.59271 33.5826 8.29395C33.6929 7.9906 33.748 7.65048 33.748 7.27358ZM38.7809 4.65371V10.5898H36.9608V3.13005H38.6844L38.7809 4.65371ZM41.0492 3.08179L41.0216 4.77781C40.9205 4.75943 40.8056 4.74564 40.6769 4.73645C40.5528 4.72725 40.4356 4.72266 40.3253 4.72266C40.0449 4.72266 39.799 4.76173 39.5876 4.83986C39.3762 4.9134 39.1992 5.02141 39.0567 5.1639C38.9188 5.30638 38.8131 5.48104 38.7396 5.68787C38.666 5.89011 38.6247 6.11992 38.6155 6.37731L38.2225 6.32905C38.2225 5.85564 38.2708 5.41669 38.3673 5.01222C38.4638 4.60775 38.604 4.25384 38.7878 3.95049C38.9717 3.64713 39.2015 3.41272 39.4773 3.24726C39.7577 3.0772 40.0794 2.99217 40.4425 2.99217C40.5436 2.99217 40.6516 3.00136 40.7665 3.01974C40.886 3.03353 40.9803 3.05421 41.0492 3.08179ZM45.6064 9.70041C45.6064 9.42463 45.7006 9.19252 45.8891 9.00407C46.0775 8.81563 46.3326 8.7214 46.6543 8.7214C46.9761 8.7214 47.2312 8.81563 47.4196 9.00407C47.6081 9.19252 47.7023 9.42463 47.7023 9.70041C47.7023 9.97159 47.6081 10.2014 47.4196 10.3898C47.2312 10.5737 46.9761 10.6656 46.6543 10.6656C46.3326 10.6656 46.0775 10.5737 45.8891 10.3898C45.7006 10.2014 45.6064 9.97159 45.6064 9.70041ZM45.6133 3.91601C45.6133 3.64024 45.7075 3.40813 45.896 3.21968C46.0844 3.03123 46.3395 2.93701 46.6612 2.93701C46.983 2.93701 47.2381 3.03123 47.4265 3.21968C47.615 3.40813 47.7092 3.64024 47.7092 3.91601C47.7092 4.18719 47.615 4.41701 47.4265 4.60545C47.2381 4.7893 46.983 4.88123 46.6612 4.88123C46.3395 4.88123 46.0844 4.7893 45.896 4.60545C45.7075 4.41701 45.6133 4.18719 45.6133 3.91601Z" fill="#3C4242"/>
<path d="M55.5343 8.66625L57.5337 0.551551H58.6161L58.6851 2.26136L56.5478 10.5898H55.4033L55.5343 8.66625ZM54.2726 0.551551L55.9135 8.63867V10.5898H54.6656L52.3905 0.551551H54.2726ZM60.7603 8.6042L62.3736 0.551551H64.2626L61.9875 10.5898H60.7396L60.7603 8.6042ZM59.1332 0.551551L61.1326 8.69383L61.2498 10.5898H60.1053L57.9749 2.25447L58.0577 0.551551H59.1332ZM67.11 0V10.5898H65.283V0H67.11ZM66.8204 6.59104H66.2827C66.2827 6.07166 66.3516 5.59365 66.4895 5.157C66.6274 4.72036 66.8227 4.34117 67.0755 4.01943C67.3283 3.6931 67.6294 3.4403 67.9787 3.26105C68.3326 3.08179 68.7233 2.99217 69.1507 2.99217C69.5184 2.99217 69.8517 3.04502 70.1504 3.15074C70.4538 3.25185 70.7135 3.41502 70.9295 3.64024C71.1455 3.86545 71.311 4.15962 71.4259 4.52272C71.5454 4.88123 71.6051 5.31787 71.6051 5.83265V10.5898H69.7712V5.81887C69.7712 5.47415 69.7207 5.20297 69.6196 5.00533C69.5184 4.80309 69.3737 4.65831 69.1852 4.57098C69.0014 4.48365 68.7738 4.43999 68.5027 4.43999C68.2085 4.43999 67.9557 4.49744 67.7443 4.61235C67.5329 4.72266 67.3582 4.87663 67.2203 5.07427C67.087 5.27191 66.9859 5.49943 66.917 5.75682C66.8526 6.01421 66.8204 6.29228 66.8204 6.59104ZM75.142 3.13005V10.5898H73.3149V3.13005H75.142ZM73.1908 1.17894C73.1908 0.907761 73.2828 0.682545 73.4666 0.503291C73.6551 0.324036 73.9079 0.234409 74.225 0.234409C74.5421 0.234409 74.7926 0.324036 74.9765 0.503291C75.1649 0.682545 75.2592 0.907761 75.2592 1.17894C75.2592 1.44552 75.1649 1.66844 74.9765 1.8477C74.7926 2.02695 74.5421 2.11658 74.225 2.11658C73.9079 2.11658 73.6551 2.02695 73.4666 1.8477C73.2828 1.66844 73.1908 1.44552 73.1908 1.17894ZM80.4093 3.13005V4.43999H76.1348V3.13005H80.4093ZM77.2792 1.29615H79.1062V8.43873C79.1062 8.65935 79.1361 8.82942 79.1959 8.94892C79.2556 9.06842 79.3452 9.14886 79.4647 9.19022C79.5842 9.23159 79.7267 9.25227 79.8922 9.25227C80.0117 9.25227 80.122 9.24538 80.2231 9.23159C80.3242 9.2178 80.4093 9.20401 80.4782 9.19022L80.4851 10.5553C80.3334 10.6059 80.1611 10.6472 79.968 10.6794C79.7796 10.7116 79.5659 10.7277 79.3269 10.7277C78.9178 10.7277 78.5593 10.6587 78.2513 10.5208C77.9434 10.3784 77.7044 10.1508 77.5343 9.8383C77.3643 9.52115 77.2792 9.10289 77.2792 8.58352V1.29615ZM84.9734 10.7277C84.408 10.7277 83.9001 10.6357 83.4497 10.4519C82.9993 10.268 82.6155 10.013 82.2983 9.68662C81.9858 9.35569 81.7445 8.9719 81.5744 8.53526C81.409 8.09401 81.3262 7.6206 81.3262 7.11501V6.83924C81.3262 6.2647 81.409 5.74303 81.5744 5.27421C81.7399 4.80079 81.9743 4.39402 82.2777 4.0539C82.581 3.71378 82.9441 3.45179 83.367 3.26794C83.7898 3.08409 84.2563 2.99217 84.7665 2.99217C85.2951 2.99217 85.7616 3.08179 86.1661 3.26105C86.5706 3.4357 86.9084 3.6839 87.1796 4.00564C87.4507 4.32738 87.6553 4.71346 87.7932 5.1639C87.9311 5.60974 88 6.10383 88 6.64619V7.41147H82.1536V6.15669H86.2075V6.0188C86.1983 5.72924 86.1431 5.46495 86.042 5.22595C85.9409 4.98235 85.7846 4.7893 85.5732 4.64682C85.3617 4.49974 85.0883 4.4262 84.7527 4.4262C84.4816 4.4262 84.2449 4.48595 84.0426 4.60545C83.845 4.72036 83.6795 4.88582 83.5462 5.10185C83.4175 5.31328 83.321 5.56607 83.2567 5.86023C83.1923 6.15439 83.1601 6.48073 83.1601 6.83924V7.11501C83.1601 7.42756 83.2015 7.71712 83.2842 7.9837C83.3716 8.25029 83.498 8.4824 83.6634 8.68004C83.8335 8.87308 84.0357 9.02476 84.2701 9.13507C84.5091 9.24078 84.7803 9.29364 85.0837 9.29364C85.4652 9.29364 85.8099 9.2201 86.1178 9.07302C86.4304 8.92134 86.7016 8.69842 86.9314 8.40426L87.8483 9.35569C87.6921 9.5855 87.4806 9.80612 87.214 10.0175C86.9521 10.229 86.6349 10.4013 86.2626 10.5346C85.8903 10.6633 85.4606 10.7277 84.9734 10.7277Z" fill="#BEBCBD"/>
</svg>
