<svg width="114" height="11" viewBox="0 0 114 11" fill="none" xmlns="http://www.w3.org/2000/svg">
<path d="M6.08425 7.21477H8.13289C8.09178 7.88624 7.90679 8.48233 7.57791 9.00305C7.2536 9.52378 6.79911 9.93031 6.21444 10.2226C5.63433 10.515 4.93546 10.6611 4.11783 10.6611C3.47835 10.6611 2.90509 10.5515 2.39807 10.3323C1.89105 10.1084 1.45712 9.78871 1.09626 9.37304C0.739977 8.95737 0.468195 8.45492 0.280917 7.86568C0.0936391 7.27644 0 6.6164 0 5.88556V5.19354C0 4.4627 0.0959229 3.80266 0.287769 3.21342C0.484182 2.61961 0.762816 2.11487 1.12367 1.69921C1.48909 1.28354 1.92531 0.963797 2.43233 0.739977C2.93935 0.516157 3.50575 0.404247 4.13154 0.404247C4.96287 0.404247 5.66402 0.554983 6.23499 0.856455C6.81053 1.15793 7.25588 1.57359 7.57106 2.10345C7.8908 2.63331 8.08265 3.23626 8.1466 3.91229H6.09111C6.06827 3.51032 5.98833 3.17002 5.8513 2.89139C5.71427 2.60819 5.50643 2.39579 5.2278 2.25419C4.95373 2.10802 4.58831 2.03494 4.13154 2.03494C3.78896 2.03494 3.48977 2.09889 3.23397 2.22678C2.97818 2.35468 2.76349 2.54881 2.58992 2.80917C2.41634 3.06953 2.28616 3.39841 2.19938 3.79581C2.11716 4.18863 2.07605 4.64998 2.07605 5.17984V5.88556C2.07605 6.40171 2.11487 6.85621 2.19252 7.24903C2.27018 7.63729 2.38894 7.96617 2.54881 8.23567C2.71325 8.5006 2.92337 8.70158 3.17916 8.83861C3.43952 8.97108 3.75241 9.03731 4.11783 9.03731C4.5472 9.03731 4.90121 8.96879 5.17984 8.83176C5.45847 8.69473 5.67087 8.49146 5.81704 8.22197C5.96778 7.95247 6.05685 7.61674 6.08425 7.21477ZM9.3248 6.89275V6.74886C9.3248 6.2053 9.40246 5.70513 9.55776 5.24835C9.71306 4.78701 9.93917 4.38733 10.2361 4.04932C10.533 3.7113 10.8984 3.44866 11.3323 3.26138C11.7663 3.06953 12.2642 2.97361 12.826 2.97361C13.3878 2.97361 13.888 3.06953 14.3265 3.26138C14.765 3.44866 15.1327 3.7113 15.4296 4.04932C15.7311 4.38733 15.9595 4.78701 16.1148 5.24835C16.2701 5.70513 16.3477 6.2053 16.3477 6.74886V6.89275C16.3477 7.43174 16.2701 7.93191 16.1148 8.39326C15.9595 8.85003 15.7311 9.24971 15.4296 9.59229C15.1327 9.93031 14.7673 10.193 14.3334 10.3802C13.8994 10.5675 13.4015 10.6611 12.8397 10.6611C12.2779 10.6611 11.7777 10.5675 11.3392 10.3802C10.9052 10.193 10.5375 9.93031 10.2361 9.59229C9.93917 9.24971 9.71306 8.85003 9.55776 8.39326C9.40246 7.93191 9.3248 7.43174 9.3248 6.89275ZM11.2981 6.74886V6.89275C11.2981 7.20336 11.3255 7.49341 11.3803 7.76291C11.4351 8.0324 11.5219 8.26993 11.6407 8.47548C11.764 8.67646 11.9239 8.83405 12.1203 8.94824C12.3167 9.06243 12.5565 9.11953 12.8397 9.11953C13.1138 9.11953 13.349 9.06243 13.5454 8.94824C13.7418 8.83405 13.8994 8.67646 14.0182 8.47548C14.1369 8.26993 14.2237 8.0324 14.2785 7.76291C14.3379 7.49341 14.3676 7.20336 14.3676 6.89275V6.74886C14.3676 6.44739 14.3379 6.16419 14.2785 5.89926C14.2237 5.62976 14.1347 5.39224 14.0113 5.18669C13.8926 4.97657 13.735 4.81213 13.5386 4.69337C13.3421 4.57461 13.1046 4.51523 12.826 4.51523C12.5474 4.51523 12.3098 4.57461 12.1134 4.69337C11.9216 4.81213 11.764 4.97657 11.6407 5.18669C11.5219 5.39224 11.4351 5.62976 11.3803 5.89926C11.3255 6.16419 11.2981 6.44739 11.2981 6.74886ZM19.924 0V10.5241H17.9439V0H19.924ZM21.5202 6.89275V6.74886C21.5202 6.2053 21.5978 5.70513 21.7531 5.24835C21.9084 4.78701 22.1345 4.38733 22.4314 4.04932C22.7283 3.7113 23.0938 3.44866 23.5277 3.26138C23.9616 3.06953 24.4595 2.97361 25.0214 2.97361C25.5832 2.97361 26.0834 3.06953 26.5219 3.26138C26.9604 3.44866 27.3281 3.7113 27.625 4.04932C27.9265 4.38733 28.1548 4.78701 28.3101 5.24835C28.4654 5.70513 28.5431 6.2053 28.5431 6.74886V6.89275C28.5431 7.43174 28.4654 7.93191 28.3101 8.39326C28.1548 8.85003 27.9265 9.24971 27.625 9.59229C27.3281 9.93031 26.9627 10.193 26.5287 10.3802C26.0948 10.5675 25.5969 10.6611 25.0351 10.6611C24.4732 10.6611 23.9731 10.5675 23.5346 10.3802C23.1006 10.193 22.7329 9.93031 22.4314 9.59229C22.1345 9.24971 21.9084 8.85003 21.7531 8.39326C21.5978 7.93191 21.5202 7.43174 21.5202 6.89275ZM23.4934 6.74886V6.89275C23.4934 7.20336 23.5209 7.49341 23.5757 7.76291C23.6305 8.0324 23.7173 8.26993 23.836 8.47548C23.9594 8.67646 24.1192 8.83405 24.3156 8.94824C24.5121 9.06243 24.7519 9.11953 25.0351 9.11953C25.3091 9.11953 25.5444 9.06243 25.7408 8.94824C25.9372 8.83405 26.0948 8.67646 26.2135 8.47548C26.3323 8.26993 26.4191 8.0324 26.4739 7.76291C26.5333 7.49341 26.563 7.20336 26.563 6.89275V6.74886C26.563 6.44739 26.5333 6.16419 26.4739 5.89926C26.4191 5.62976 26.33 5.39224 26.2067 5.18669C26.0879 4.97657 25.9303 4.81213 25.7339 4.69337C25.5375 4.57461 25.3 4.51523 25.0214 4.51523C24.7427 4.51523 24.5052 4.57461 24.3088 4.69337C24.1169 4.81213 23.9594 4.97657 23.836 5.18669C23.7173 5.39224 23.6305 5.62976 23.5757 5.89926C23.5209 6.16419 23.4934 6.44739 23.4934 6.74886ZM34.4215 8.74954V3.11064H36.3948V10.5241H34.538L34.4215 8.74954ZM34.6408 7.22848L35.2232 7.21477C35.2232 7.70809 35.1661 8.16715 35.0519 8.59195C34.9377 9.01219 34.7664 9.37761 34.538 9.68822C34.3096 9.99426 34.0219 10.2341 33.6747 10.4076C33.3276 10.5766 32.9187 10.6611 32.4483 10.6611C32.0874 10.6611 31.754 10.6109 31.4479 10.5104C31.1465 10.4054 30.8861 10.2432 30.6668 10.0239C30.4522 9.80013 30.2831 9.51464 30.1598 9.16749C30.0411 8.81577 29.9817 8.39326 29.9817 7.89994V3.11064H31.9549V7.91364C31.9549 8.13289 31.9801 8.31789 32.0303 8.46862C32.0851 8.61936 32.1605 8.74269 32.2564 8.83861C32.3523 8.93454 32.4642 9.00305 32.5921 9.04416C32.7246 9.08527 32.8708 9.10583 33.0307 9.10583C33.4372 9.10583 33.7569 9.02361 33.9899 8.85917C34.2274 8.69473 34.3941 8.47091 34.4901 8.18771C34.5905 7.89994 34.6408 7.5802 34.6408 7.22848ZM40.1561 4.72763V10.5241H38.1828V3.11064H40.0396L40.1561 4.72763ZM42.3897 3.06268L42.3555 4.89207C42.2595 4.87837 42.1431 4.86695 42.006 4.85781C41.8736 4.84411 41.7525 4.83726 41.6429 4.83726C41.3643 4.83726 41.1222 4.8738 40.9166 4.94688C40.7156 5.0154 40.5466 5.11817 40.4096 5.25521C40.2771 5.39224 40.1766 5.55896 40.1081 5.75538C40.0442 5.95179 40.0076 6.17561 39.9985 6.42684L39.6011 6.30351C39.6011 5.82389 39.6491 5.3831 39.745 4.98114C39.8409 4.57461 39.9802 4.22061 40.1629 3.91914C40.3502 3.61766 40.5786 3.38471 40.8481 3.22027C41.1176 3.05583 41.4259 2.97361 41.7731 2.97361C41.8827 2.97361 41.9946 2.98275 42.1088 3.00102C42.223 3.01472 42.3166 3.03528 42.3897 3.06268ZM47.4525 9.57174C47.4525 9.2794 47.553 9.03503 47.754 8.83861C47.9595 8.6422 48.2313 8.54399 48.5693 8.54399C48.9074 8.54399 49.1769 8.6422 49.3778 8.83861C49.5834 9.03503 49.6862 9.2794 49.6862 9.57174C49.6862 9.86407 49.5834 10.1084 49.3778 10.3049C49.1769 10.5013 48.9074 10.5995 48.5693 10.5995C48.2313 10.5995 47.9595 10.5013 47.754 10.3049C47.553 10.1084 47.4525 9.86407 47.4525 9.57174ZM47.4525 3.91914C47.4525 3.6268 47.553 3.38243 47.754 3.18601C47.9595 2.9896 48.2313 2.89139 48.5693 2.89139C48.9074 2.89139 49.1769 2.9896 49.3778 3.18601C49.5834 3.38243 49.6862 3.6268 49.6862 3.91914C49.6862 4.21147 49.5834 4.45585 49.3778 4.65226C49.1769 4.84868 48.9074 4.94688 48.5693 4.94688C48.2313 4.94688 47.9595 4.84868 47.754 4.65226C47.553 4.45585 47.4525 4.21147 47.4525 3.91914Z" fill="#3C4242"/>
<path d="M61.8884 9.16064V10.5241H56.8798V9.16064H61.8884ZM57.3594 0.548131V10.5241H55.6397V0.548131H57.3594ZM66.602 10.6611C66.0539 10.6611 65.5583 10.5721 65.1152 10.3939C64.6767 10.2112 64.3022 9.95771 63.9916 9.6334C63.6855 9.30909 63.4503 8.92768 63.2858 8.48918C63.1214 8.05067 63.0392 7.57791 63.0392 7.07089V6.79682C63.0392 6.21672 63.1237 5.69143 63.2927 5.22095C63.4617 4.75047 63.6969 4.34851 63.9984 4.01506C64.2999 3.67705 64.6562 3.41897 65.0673 3.24082C65.4784 3.06268 65.9237 2.97361 66.4033 2.97361C66.9332 2.97361 67.3968 3.06268 67.7942 3.24082C68.1916 3.41897 68.5205 3.67019 68.7809 3.9945C69.0458 4.31425 69.2422 4.69566 69.3701 5.13873C69.5026 5.5818 69.5688 6.07055 69.5688 6.60498V7.3107H63.8408V6.12536H67.9381V5.99518C67.929 5.69828 67.8696 5.41965 67.76 5.15928C67.6549 4.89892 67.4927 4.6888 67.2735 4.52893C67.0542 4.36906 66.7619 4.28913 66.3965 4.28913C66.1224 4.28913 65.878 4.34851 65.6634 4.46727C65.4532 4.58146 65.2774 4.74819 65.1358 4.96744C64.9942 5.18669 64.8846 5.45162 64.8069 5.76223C64.7338 6.06827 64.6973 6.41313 64.6973 6.79682V7.07089C64.6973 7.3952 64.7407 7.69667 64.8275 7.97531C64.9188 8.24937 65.0513 8.48918 65.2249 8.69473C65.3984 8.90028 65.6085 9.06243 65.8552 9.18119C66.1019 9.29539 66.3828 9.35249 66.698 9.35249C67.0953 9.35249 67.4494 9.27255 67.76 9.11268C68.0706 8.95281 68.3401 8.7267 68.5685 8.43437L69.4386 9.27712C69.2787 9.51007 69.0709 9.73389 68.8151 9.94858C68.5593 10.1587 68.2464 10.33 67.8764 10.4625C67.511 10.5949 67.0862 10.6611 66.602 10.6611ZM73.4534 9.21545L75.2691 3.11064H76.982L74.4058 10.5241H73.3369L73.4534 9.21545ZM72.0625 3.11064L73.9125 9.24286L74.0015 10.5241H72.9327L70.3428 3.11064H72.0625ZM81.4558 10.6611C80.9077 10.6611 80.4121 10.5721 79.969 10.3939C79.5305 10.2112 79.156 9.95771 78.8454 9.6334C78.5393 9.30909 78.3041 8.92768 78.1396 8.48918C77.9752 8.05067 77.893 7.57791 77.893 7.07089V6.79682C77.893 6.21672 77.9775 5.69143 78.1465 5.22095C78.3155 4.75047 78.5507 4.34851 78.8522 4.01506C79.1537 3.67705 79.51 3.41897 79.9211 3.24082C80.3322 3.06268 80.7775 2.97361 81.2571 2.97361C81.787 2.97361 82.2506 3.06268 82.648 3.24082C83.0454 3.41897 83.3743 3.67019 83.6347 3.9945C83.8996 4.31425 84.096 4.69566 84.2239 5.13873C84.3564 5.5818 84.4226 6.07055 84.4226 6.60498V7.3107H78.6946V6.12536H82.7919V5.99518C82.7828 5.69828 82.7234 5.41965 82.6138 5.15928C82.5087 4.89892 82.3465 4.6888 82.1273 4.52893C81.908 4.36906 81.6157 4.28913 81.2503 4.28913C80.9762 4.28913 80.7318 4.34851 80.5172 4.46727C80.307 4.58146 80.1312 4.74819 79.9896 4.96744C79.848 5.18669 79.7384 5.45162 79.6607 5.76223C79.5876 6.06827 79.5511 6.41313 79.5511 6.79682V7.07089C79.5511 7.3952 79.5945 7.69667 79.6813 7.97531C79.7726 8.24937 79.9051 8.48918 80.0787 8.69473C80.2522 8.90028 80.4623 9.06243 80.709 9.18119C80.9557 9.29539 81.2366 9.35249 81.5518 9.35249C81.9492 9.35249 82.3032 9.27255 82.6138 9.11268C82.9244 8.95281 83.1939 8.7267 83.4223 8.43437L84.2924 9.27712C84.1325 9.51007 83.9247 9.73389 83.6689 9.94858C83.4131 10.1587 83.1002 10.33 82.7302 10.4625C82.3648 10.5949 81.94 10.6611 81.4558 10.6611ZM87.6289 4.69337V10.5241H85.9776V3.11064H87.533L87.6289 4.69337ZM87.3343 6.54331L86.7998 6.53646C86.8044 6.01117 86.8775 5.52927 87.0191 5.09077C87.1653 4.65226 87.3662 4.27542 87.622 3.96025C87.8824 3.64507 88.193 3.40298 88.5539 3.23397C88.9147 3.0604 89.3167 2.97361 89.7597 2.97361C90.116 2.97361 90.4381 3.02386 90.7258 3.12435C91.0182 3.22027 91.2671 3.37786 91.4727 3.59711C91.6828 3.81636 91.8426 4.10185 91.9523 4.45356C92.0619 4.80071 92.1167 5.2278 92.1167 5.73482V10.5241H90.4586V5.72797C90.4586 5.37168 90.4061 5.09077 90.301 4.88522C90.2005 4.6751 90.0521 4.52665 89.8557 4.43986C89.6638 4.34851 89.424 4.30283 89.1362 4.30283C88.853 4.30283 88.5995 4.36221 88.3757 4.48097C88.1519 4.59973 87.9623 4.76189 87.807 4.96744C87.6563 5.17299 87.5398 5.41051 87.4576 5.68001C87.3754 5.94951 87.3343 6.23727 87.3343 6.54331ZM98.6049 8.98935V0H100.263V10.5241H98.7625L98.6049 8.98935ZM93.7814 6.8996V6.75572C93.7814 6.19388 93.8476 5.68229 93.9801 5.22095C94.1125 4.75504 94.3044 4.35536 94.5556 4.02191C94.8068 3.6839 95.1129 3.42582 95.4737 3.24768C95.8346 3.06497 96.2411 2.97361 96.6933 2.97361C97.141 2.97361 97.5338 3.0604 97.8718 3.23397C98.2098 3.40755 98.4976 3.65649 98.7351 3.9808C98.9726 4.30054 99.1622 4.68424 99.3038 5.13188C99.4454 5.57495 99.5459 6.06827 99.6053 6.61183V7.07089C99.5459 7.60075 99.4454 8.08493 99.3038 8.52344C99.1622 8.96194 98.9726 9.34107 98.7351 9.66081C98.4976 9.98055 98.2075 10.2272 97.865 10.4008C97.5269 10.5744 97.1318 10.6611 96.6796 10.6611C96.232 10.6611 95.8277 10.5675 95.4669 10.3802C95.1106 10.193 94.8068 9.93031 94.5556 9.59229C94.3044 9.25428 94.1125 8.85688 93.9801 8.40011C93.8476 7.93876 93.7814 7.43859 93.7814 6.8996ZM95.4326 6.75572V6.8996C95.4326 7.23761 95.4623 7.55279 95.5217 7.84513C95.5856 8.13746 95.6839 8.39554 95.8163 8.61936C95.9488 8.83861 96.1201 9.01219 96.3302 9.14009C96.5449 9.26341 96.8007 9.32508 97.0976 9.32508C97.4721 9.32508 97.7805 9.24286 98.0225 9.07842C98.2646 8.91398 98.4542 8.69244 98.5912 8.41381C98.7328 8.13061 98.8288 7.81544 98.879 7.46829V6.22814C98.8516 5.95864 98.7945 5.70741 98.7077 5.47446C98.6255 5.2415 98.5136 5.03824 98.372 4.86466C98.2304 4.68652 98.0545 4.54949 97.8444 4.45356C97.6389 4.35307 97.3945 4.30283 97.1113 4.30283C96.8098 4.30283 96.554 4.36678 96.3439 4.49467C96.1338 4.62257 95.9602 4.79843 95.8232 5.02225C95.6907 5.24607 95.5925 5.50643 95.5285 5.80334C95.4646 6.10024 95.4326 6.4177 95.4326 6.75572ZM105.539 10.6611C104.99 10.6611 104.495 10.5721 104.052 10.3939C103.613 10.2112 103.239 9.95771 102.928 9.6334C102.622 9.30909 102.387 8.92768 102.222 8.48918C102.058 8.05067 101.976 7.57791 101.976 7.07089V6.79682C101.976 6.21672 102.06 5.69143 102.229 5.22095C102.398 4.75047 102.633 4.34851 102.935 4.01506C103.236 3.67705 103.593 3.41897 104.004 3.24082C104.415 3.06268 104.86 2.97361 105.34 2.97361C105.87 2.97361 106.333 3.06268 106.731 3.24082C107.128 3.41897 107.457 3.67019 107.717 3.9945C107.982 4.31425 108.179 4.69566 108.307 5.13873C108.439 5.5818 108.505 6.07055 108.505 6.60498V7.3107H102.777V6.12536H106.875V5.99518C106.865 5.69828 106.806 5.41965 106.696 5.15928C106.591 4.89892 106.429 4.6888 106.21 4.52893C105.991 4.36906 105.698 4.28913 105.333 4.28913C105.059 4.28913 104.815 4.34851 104.6 4.46727C104.39 4.58146 104.214 4.74819 104.072 4.96744C103.931 5.18669 103.821 5.45162 103.743 5.76223C103.67 6.06827 103.634 6.41313 103.634 6.79682V7.07089C103.634 7.3952 103.677 7.69667 103.764 7.97531C103.855 8.24937 103.988 8.48918 104.161 8.69473C104.335 8.90028 104.545 9.06243 104.792 9.18119C105.038 9.29539 105.319 9.35249 105.634 9.35249C106.032 9.35249 106.386 9.27255 106.696 9.11268C107.007 8.95281 107.277 8.7267 107.505 8.43437L108.375 9.27712C108.215 9.51007 108.007 9.73389 107.752 9.94858C107.496 10.1587 107.183 10.33 106.813 10.4625C106.448 10.5949 106.023 10.6611 105.539 10.6611ZM111.732 4.52208V10.5241H110.081V3.11064H111.657L111.732 4.52208ZM114 3.06268L113.986 4.59745C113.886 4.57918 113.776 4.56547 113.657 4.55634C113.543 4.5472 113.429 4.54264 113.315 4.54264C113.032 4.54264 112.783 4.58375 112.568 4.66597C112.353 4.74362 112.173 4.85781 112.027 5.00855C111.885 5.15472 111.776 5.33286 111.698 5.54298C111.62 5.75309 111.575 5.98833 111.561 6.24869L111.184 6.2761C111.184 5.81019 111.23 5.37854 111.321 4.98114C111.412 4.58375 111.549 4.23431 111.732 3.93284C111.919 3.63137 112.152 3.39613 112.431 3.22712C112.714 3.05811 113.041 2.97361 113.411 2.97361C113.511 2.97361 113.619 2.98275 113.733 3.00102C113.852 3.01929 113.941 3.03984 114 3.06268Z" fill="#807D7E"/>
</svg>
