<svg width="89" height="11" viewBox="0 0 89 11" fill="none" xmlns="http://www.w3.org/2000/svg">
<path d="M6.09885 7.23209H8.15241C8.1112 7.90516 7.92576 8.50268 7.5961 9.02466C7.27101 9.54663 6.81542 9.95414 6.22935 10.2472C5.64785 10.5402 4.94731 10.6867 4.12772 10.6867C3.48669 10.6867 2.91207 10.5768 2.40383 10.3571C1.89559 10.1327 1.46061 9.8122 1.09889 9.39553C0.741753 8.97887 0.469319 8.47521 0.281591 7.88455C0.0938637 7.2939 0 6.63227 0 5.89968V5.206C0 4.47341 0.0961531 3.81178 0.288459 3.22113C0.485344 2.6259 0.764646 2.11995 1.12636 1.70328C1.49266 1.28662 1.92993 0.96611 2.43817 0.741753C2.94641 0.517395 3.51417 0.405217 4.14145 0.405217C4.97478 0.405217 5.67761 0.556314 6.24995 0.85851C6.82687 1.16071 7.2733 1.57737 7.58923 2.1085C7.90974 2.63963 8.10204 3.24402 8.16615 3.92167H6.10572C6.08283 3.51875 6.0027 3.17763 5.86534 2.89833C5.72798 2.61445 5.51965 2.40154 5.24034 2.2596C4.96562 2.11308 4.59932 2.03982 4.14145 2.03982C3.79805 2.03982 3.49814 2.10392 3.24173 2.23213C2.98532 2.36033 2.77013 2.55493 2.59613 2.81591C2.42214 3.0769 2.29165 3.40657 2.20465 3.80492C2.12224 4.19869 2.08103 4.66114 2.08103 5.19227V5.89968C2.08103 6.41708 2.11995 6.87266 2.19779 7.26643C2.27562 7.65562 2.39467 7.98529 2.55493 8.25543C2.71976 8.521 2.93038 8.72246 3.18679 8.85982C3.44778 8.9926 3.76142 9.059 4.12772 9.059C4.55812 9.059 4.91297 8.99032 5.19227 8.85295C5.47157 8.71559 5.68448 8.51184 5.831 8.24169C5.9821 7.97155 6.07138 7.63501 6.09885 7.23209ZM9.34718 6.90929V6.76506C9.34718 6.22019 9.42502 5.71882 9.5807 5.26095C9.73637 4.7985 9.96302 4.39786 10.2606 4.05903C10.5583 3.72021 10.9245 3.45693 11.3595 3.26921C11.7945 3.0769 12.2936 2.98075 12.8568 2.98075C13.42 2.98075 13.9213 3.0769 14.3609 3.26921C14.8004 3.45693 15.169 3.72021 15.4666 4.05903C15.7688 4.39786 15.9978 4.7985 16.1534 5.26095C16.3091 5.71882 16.387 6.22019 16.387 6.76506V6.90929C16.387 7.44958 16.3091 7.95095 16.1534 8.4134C15.9978 8.87127 15.7688 9.27191 15.4666 9.61531C15.169 9.95414 14.8027 10.2174 14.3677 10.4051C13.9328 10.5929 13.4337 10.6867 12.8705 10.6867C12.3073 10.6867 11.806 10.5929 11.3664 10.4051C10.9314 10.2174 10.5628 9.95414 10.2606 9.61531C9.96302 9.27191 9.73637 8.87127 9.5807 8.4134C9.42502 7.95095 9.34718 7.44958 9.34718 6.90929ZM11.3252 6.76506V6.90929C11.3252 7.22064 11.3527 7.51139 11.4076 7.78153C11.4625 8.05168 11.5495 8.28977 11.6686 8.49581C11.7922 8.69728 11.9525 8.85524 12.1494 8.96971C12.3462 9.08418 12.5866 9.14141 12.8705 9.14141C13.1452 9.14141 13.381 9.08418 13.5779 8.96971C13.7748 8.85524 13.9328 8.69728 14.0518 8.49581C14.1709 8.28977 14.2579 8.05168 14.3128 7.78153C14.3723 7.51139 14.4021 7.22064 14.4021 6.90929V6.76506C14.4021 6.46286 14.3723 6.17898 14.3128 5.91342C14.2579 5.64327 14.1686 5.40518 14.0449 5.19914C13.9259 4.98851 13.7679 4.82368 13.571 4.70463C13.3742 4.58559 13.1361 4.52606 12.8568 4.52606C12.5775 4.52606 12.3394 4.58559 12.1425 4.70463C11.9502 4.82368 11.7922 4.98851 11.6686 5.19914C11.5495 5.40518 11.4625 5.64327 11.4076 5.91342C11.3527 6.17898 11.3252 6.46286 11.3252 6.76506ZM19.9718 0V10.5494H17.9869V0H19.9718ZM21.5718 6.90929V6.76506C21.5718 6.22019 21.6496 5.71882 21.8053 5.26095C21.961 4.7985 22.1876 4.39786 22.4853 4.05903C22.7829 3.72021 23.1492 3.45693 23.5842 3.26921C24.0191 3.0769 24.5182 2.98075 25.0814 2.98075C25.6446 2.98075 26.146 3.0769 26.5855 3.26921C27.0251 3.45693 27.3937 3.72021 27.6913 4.05903C27.9935 4.39786 28.2224 4.7985 28.3781 5.26095C28.5338 5.71882 28.6116 6.22019 28.6116 6.76506V6.90929C28.6116 7.44958 28.5338 7.95095 28.3781 8.4134C28.2224 8.87127 27.9935 9.27191 27.6913 9.61531C27.3937 9.95414 27.0274 10.2174 26.5924 10.4051C26.1574 10.5929 25.6583 10.6867 25.0951 10.6867C24.532 10.6867 24.0306 10.5929 23.591 10.4051C23.156 10.2174 22.7875 9.95414 22.4853 9.61531C22.1876 9.27191 21.961 8.87127 21.8053 8.4134C21.6496 7.95095 21.5718 7.44958 21.5718 6.90929ZM23.5498 6.76506V6.90929C23.5498 7.22064 23.5773 7.51139 23.6322 7.78153C23.6872 8.05168 23.7742 8.28977 23.8932 8.49581C24.0168 8.69728 24.1771 8.85524 24.374 8.96971C24.5709 9.08418 24.8113 9.14141 25.0951 9.14141C25.3699 9.14141 25.6057 9.08418 25.8025 8.96971C25.9994 8.85524 26.1574 8.69728 26.2764 8.49581C26.3955 8.28977 26.4825 8.05168 26.5374 7.78153C26.597 7.51139 26.6267 7.22064 26.6267 6.90929V6.76506C26.6267 6.46286 26.597 6.17898 26.5374 5.91342C26.4825 5.64327 26.3932 5.40518 26.2696 5.19914C26.1505 4.98851 25.9926 4.82368 25.7957 4.70463C25.5988 4.58559 25.3607 4.52606 25.0814 4.52606C24.8021 4.52606 24.564 4.58559 24.3671 4.70463C24.1748 4.82368 24.0168 4.98851 23.8932 5.19914C23.7742 5.40518 23.6872 5.64327 23.6322 5.91342C23.5773 6.17898 23.5498 6.46286 23.5498 6.76506ZM32.0866 4.73897V10.5494H30.1086V3.11811H31.9698L32.0866 4.73897ZM34.3256 3.07003L34.2912 4.90381C34.1951 4.89007 34.0783 4.87863 33.9409 4.86947C33.8082 4.85573 33.6868 4.84886 33.5769 4.84886C33.2976 4.84886 33.055 4.88549 32.8489 4.95875C32.6475 5.02743 32.478 5.13045 32.3407 5.26782C32.2079 5.40518 32.1072 5.5723 32.0385 5.76919C31.9744 5.96607 31.9378 6.19043 31.9286 6.44226L31.5303 6.31863C31.5303 5.83787 31.5783 5.39602 31.6745 4.99309C31.7706 4.58559 31.9103 4.23074 32.0934 3.92854C32.2812 3.62635 32.5101 3.39283 32.7802 3.228C33.0504 3.06316 33.3595 2.98075 33.7074 2.98075C33.8173 2.98075 33.9295 2.9899 34.044 3.00822C34.1584 3.02195 34.2523 3.04256 34.3256 3.07003ZM39.4005 9.59471C39.4005 9.30167 39.5013 9.05671 39.7027 8.85982C39.9088 8.66294 40.1812 8.56449 40.52 8.56449C40.8588 8.56449 41.129 8.66294 41.3305 8.85982C41.5365 9.05671 41.6395 9.30167 41.6395 9.59471C41.6395 9.88774 41.5365 10.1327 41.3305 10.3296C41.129 10.5265 40.8588 10.6249 40.52 10.6249C40.1812 10.6249 39.9088 10.5265 39.7027 10.3296C39.5013 10.1327 39.4005 9.88774 39.4005 9.59471ZM39.4005 3.92854C39.4005 3.6355 39.5013 3.39054 39.7027 3.19366C39.9088 2.99677 40.1812 2.89833 40.52 2.89833C40.8588 2.89833 41.129 2.99677 41.3305 3.19366C41.5365 3.39054 41.6395 3.6355 41.6395 3.92854C41.6395 4.22158 41.5365 4.46654 41.3305 4.66343C41.129 4.86031 40.8588 4.95875 40.52 4.95875C40.1812 4.95875 39.9088 4.86031 39.7027 4.66343C39.5013 4.46654 39.4005 4.22158 39.4005 3.92854Z" fill="#3C4242"/>
<path d="M48.562 0.549446L50.8834 5.32276L53.2048 0.549446H55.1141L51.7488 6.86808V10.5494H50.0112V6.86808L46.6458 0.549446H48.562ZM59.1454 10.6867C58.596 10.6867 58.0992 10.5974 57.6551 10.4189C57.2155 10.2357 56.84 9.98161 56.5287 9.65652C56.2219 9.33143 55.9861 8.94911 55.8213 8.50955C55.6564 8.06999 55.574 7.5961 55.574 7.08786V6.81313C55.574 6.23164 55.6587 5.70508 55.8281 5.23348C55.9976 4.76187 56.2334 4.35894 56.5356 4.02469C56.8377 3.68587 57.1949 3.42717 57.607 3.2486C58.0191 3.07003 58.4655 2.98075 58.9462 2.98075C59.4774 2.98075 59.9421 3.07003 60.3405 3.2486C60.7388 3.42717 61.0685 3.679 61.3295 4.00409C61.595 4.3246 61.7919 4.70692 61.9201 5.15106C62.0529 5.59519 62.1193 6.08512 62.1193 6.62083V7.32824H56.3776V6.14006H60.4847V6.00957C60.4755 5.71195 60.416 5.43265 60.3061 5.17166C60.2008 4.91068 60.0383 4.70006 59.8185 4.5398C59.5987 4.37954 59.3057 4.29942 58.9394 4.29942C58.6647 4.29942 58.4197 4.35894 58.2045 4.47799C57.9939 4.59246 57.8176 4.75958 57.6757 4.97936C57.5337 5.19914 57.4238 5.4647 57.346 5.77605C57.2727 6.08283 57.2361 6.42852 57.2361 6.81313V7.08786C57.2361 7.41295 57.2796 7.71514 57.3666 7.99444C57.4582 8.26917 57.5909 8.50955 57.7649 8.71559C57.9389 8.92163 58.1496 9.08418 58.3968 9.20323C58.6441 9.31769 58.9256 9.37493 59.2416 9.37493C59.6399 9.37493 59.9948 9.2948 60.3061 9.13454C60.6175 8.97429 60.8876 8.74764 61.1166 8.45461L61.9888 9.29938C61.8286 9.53289 61.6202 9.75725 61.3638 9.97245C61.1074 10.1831 60.7938 10.3548 60.4229 10.4876C60.0566 10.6203 59.6308 10.6867 59.1454 10.6867ZM65.4638 0V10.5494H63.8017V0H65.4638ZM69.3302 0V10.5494H67.6682V0H69.3302ZM71.1088 6.91616V6.75819C71.1088 6.22248 71.1866 5.72569 71.3423 5.26782C71.498 4.80537 71.7223 4.40473 72.0154 4.0659C72.313 3.7225 72.6747 3.45693 73.1005 3.26921C73.5309 3.0769 74.0163 2.98075 74.5566 2.98075C75.1014 2.98075 75.5868 3.0769 76.0126 3.26921C76.443 3.45693 76.807 3.7225 77.1046 4.0659C77.4022 4.40473 77.6289 4.80537 77.7846 5.26782C77.9402 5.72569 78.0181 6.22248 78.0181 6.75819V6.91616C78.0181 7.45187 77.9402 7.94866 77.7846 8.40653C77.6289 8.8644 77.4022 9.26504 77.1046 9.60844C76.807 9.94727 76.4453 10.2128 76.0195 10.4051C75.5936 10.5929 75.1106 10.6867 74.5703 10.6867C74.0254 10.6867 73.5378 10.5929 73.1074 10.4051C72.6816 10.2128 72.3199 9.94727 72.0222 9.60844C71.7246 9.26504 71.498 8.8644 71.3423 8.40653C71.1866 7.94866 71.1088 7.45187 71.1088 6.91616ZM72.764 6.75819V6.91616C72.764 7.2504 72.7983 7.56633 72.867 7.86395C72.9357 8.16157 73.0433 8.42255 73.1898 8.64691C73.3363 8.87127 73.5241 9.04755 73.753 9.17575C73.9819 9.30396 74.2544 9.36806 74.5703 9.36806C74.8771 9.36806 75.1426 9.30396 75.367 9.17575C75.5959 9.04755 75.7837 8.87127 75.9302 8.64691C76.0767 8.42255 76.1843 8.16157 76.253 7.86395C76.3262 7.56633 76.3629 7.2504 76.3629 6.91616V6.75819C76.3629 6.42852 76.3262 6.11717 76.253 5.82413C76.1843 5.52651 76.0744 5.26324 75.9233 5.0343C75.7768 4.80537 75.5891 4.6268 75.3601 4.49859C75.1358 4.36581 74.8679 4.29942 74.5566 4.29942C74.2452 4.29942 73.9751 4.36581 73.7461 4.49859C73.5218 4.6268 73.3363 4.80537 73.1898 5.0343C73.0433 5.26324 72.9357 5.52651 72.867 5.82413C72.7983 6.11717 72.764 6.42852 72.764 6.75819ZM81.706 8.90103L83.423 3.11811H84.4807L84.1922 4.84886L82.4615 10.5494H81.5137L81.706 8.90103ZM80.6964 3.11811L82.0356 8.9285L82.1455 10.5494H81.0878L79.0755 3.11811H80.6964ZM86.0878 8.85982L87.3859 3.11811H88.9999L86.9944 10.5494H85.9367L86.0878 8.85982ZM84.6592 3.11811L86.3557 8.83235L86.5686 10.5494H85.6208L83.8694 4.842L83.5809 3.11811H84.6592Z" fill="#807D7E"/>
</svg>
