<svg width="80" height="11" viewBox="0 0 80 11" fill="none" xmlns="http://www.w3.org/2000/svg">
<path d="M6.19796 7.30351H8.09812C8.04745 7.97605 7.86089 8.57258 7.53843 9.09311C7.21598 9.60903 6.76686 10.0144 6.19105 10.3092C5.61525 10.604 4.91737 10.7514 4.09743 10.7514C3.46634 10.7514 2.89745 10.6409 2.39074 10.4198C1.88864 10.194 1.45794 9.8739 1.09864 9.45932C0.74394 9.04013 0.47216 8.53803 0.283296 7.95301C0.094432 7.36339 0 6.70237 0 5.96994V5.20297C0 4.47055 0.0967352 3.80952 0.290206 3.2199C0.483676 2.63028 0.760062 2.12817 1.11936 1.71359C1.48327 1.29441 1.91858 0.971958 2.42529 0.746243C2.9366 0.520527 3.5078 0.40767 4.13888 0.40767C4.95883 0.40767 5.6521 0.559682 6.21869 0.863707C6.78528 1.16313 7.2252 1.5754 7.53843 2.10054C7.85167 2.62567 8.04054 3.22911 8.10503 3.91087H6.20487C6.16802 3.48707 6.07589 3.12777 5.92849 2.83296C5.78569 2.53815 5.56918 2.31473 5.27898 2.16272C4.99338 2.0061 4.61335 1.92779 4.13888 1.92779C3.77037 1.92779 3.44562 1.99689 3.16462 2.13508C2.88824 2.27328 2.65791 2.48057 2.47366 2.75695C2.2894 3.02873 2.15121 3.36961 2.05908 3.77958C1.96695 4.18495 1.92088 4.65481 1.92088 5.18915V5.96994C1.92088 6.48126 1.96234 6.9396 2.04526 7.34496C2.12817 7.75033 2.25715 8.09351 2.4322 8.3745C2.60724 8.6555 2.83296 8.8697 3.10935 9.0171C3.38573 9.16451 3.71509 9.23821 4.09743 9.23821C4.56268 9.23821 4.9404 9.16451 5.23061 9.0171C5.52542 8.8697 5.74883 8.65319 5.90085 8.36759C6.05747 8.08199 6.1565 7.7273 6.19796 7.30351ZM9.10693 6.95111V6.80601C9.10693 6.25785 9.18524 5.75344 9.34186 5.2928C9.49847 4.82755 9.72649 4.42448 10.0259 4.08361C10.3253 3.74273 10.6915 3.47786 11.1245 3.289C11.5576 3.09553 12.0504 2.99879 12.6032 2.99879C13.1652 2.99879 13.6627 3.09553 14.0957 3.289C14.5333 3.47786 14.9018 3.74273 15.2012 4.08361C15.5007 4.42448 15.7287 4.82755 15.8853 5.2928C16.0419 5.75344 16.1202 6.25785 16.1202 6.80601V6.95111C16.1202 7.49467 16.0419 7.99908 15.8853 8.46433C15.7287 8.92497 15.5007 9.32804 15.2012 9.67352C14.9018 10.0144 14.5356 10.2793 14.1026 10.4681C13.6696 10.657 13.1744 10.7514 12.617 10.7514C12.0643 10.7514 11.5691 10.657 11.1315 10.4681C10.6938 10.2793 10.3253 10.0144 10.0259 9.67352C9.72649 9.32804 9.49847 8.92497 9.34186 8.46433C9.18524 7.99908 9.10693 7.49467 9.10693 6.95111ZM10.9311 6.80601V6.95111C10.9311 7.27817 10.9633 7.5845 11.0278 7.8701C11.0923 8.1557 11.1913 8.40675 11.3249 8.62325C11.4585 8.83975 11.6313 9.01019 11.8432 9.13457C12.0597 9.25433 12.3176 9.31422 12.617 9.31422C12.9118 9.31422 13.1652 9.25433 13.3771 9.13457C13.589 9.01019 13.7617 8.83975 13.8953 8.62325C14.0335 8.40675 14.1349 8.1557 14.1993 7.8701C14.2638 7.5845 14.2961 7.27817 14.2961 6.95111V6.80601C14.2961 6.48356 14.2638 6.18184 14.1993 5.90085C14.1349 5.61525 14.0335 5.3642 13.8953 5.14769C13.7617 4.92658 13.5867 4.75384 13.3702 4.62947C13.1583 4.50049 12.9026 4.436 12.6032 4.436C12.3084 4.436 12.055 4.50049 11.8432 4.62947C11.6313 4.75384 11.4585 4.92658 11.3249 5.14769C11.1913 5.3642 11.0923 5.61525 11.0278 5.90085C10.9633 6.18184 10.9311 6.48356 10.9311 6.80601ZM19.3816 0V10.6132H17.5505V0H19.3816ZM20.7981 6.95111V6.80601C20.7981 6.25785 20.8764 5.75344 21.033 5.2928C21.1896 4.82755 21.4176 4.42448 21.717 4.08361C22.0165 3.74273 22.3827 3.47786 22.8157 3.289C23.2487 3.09553 23.7416 2.99879 24.2944 2.99879C24.8563 2.99879 25.3538 3.09553 25.7868 3.289C26.2244 3.47786 26.593 3.74273 26.8924 4.08361C27.1918 4.42448 27.4198 4.82755 27.5764 5.2928C27.7331 5.75344 27.8114 6.25785 27.8114 6.80601V6.95111C27.8114 7.49467 27.7331 7.99908 27.5764 8.46433C27.4198 8.92497 27.1918 9.32804 26.8924 9.67352C26.593 10.0144 26.2268 10.2793 25.7937 10.4681C25.3607 10.657 24.8655 10.7514 24.3082 10.7514C23.7554 10.7514 23.2602 10.657 22.8226 10.4681C22.385 10.2793 22.0165 10.0144 21.717 9.67352C21.4176 9.32804 21.1896 8.92497 21.033 8.46433C20.8764 7.99908 20.7981 7.49467 20.7981 6.95111ZM22.6222 6.80601V6.95111C22.6222 7.27817 22.6545 7.5845 22.7189 7.8701C22.7834 8.1557 22.8825 8.40675 23.0161 8.62325C23.1497 8.83975 23.3224 9.01019 23.5343 9.13457C23.7508 9.25433 24.0088 9.31422 24.3082 9.31422C24.603 9.31422 24.8563 9.25433 25.0682 9.13457C25.2801 9.01019 25.4529 8.83975 25.5865 8.62325C25.7247 8.40675 25.826 8.1557 25.8905 7.8701C25.955 7.5845 25.9872 7.27817 25.9872 6.95111V6.80601C25.9872 6.48356 25.955 6.18184 25.8905 5.90085C25.826 5.61525 25.7247 5.3642 25.5865 5.14769C25.4529 4.92658 25.2778 4.75384 25.0613 4.62947C24.8494 4.50049 24.5938 4.436 24.2944 4.436C23.9995 4.436 23.7462 4.50049 23.5343 4.62947C23.3224 4.75384 23.1497 4.92658 23.0161 5.14769C22.8825 5.3642 22.7834 5.61525 22.7189 5.90085C22.6545 6.18184 22.6222 6.48356 22.6222 6.80601ZM33.5878 8.83745V3.13698H35.4258V10.6132H33.6984L33.5878 8.83745ZM33.8228 7.28969L34.3894 7.27587C34.3894 7.77797 34.3341 8.24092 34.2235 8.66471C34.113 9.0885 33.9402 9.45702 33.7053 9.77025C33.475 10.0789 33.1825 10.3207 32.8278 10.4958C32.4731 10.6662 32.0539 10.7514 31.5702 10.7514C31.2017 10.7514 30.8654 10.7008 30.5614 10.5994C30.2574 10.4935 29.9948 10.3299 29.7737 10.1088C29.5572 9.88311 29.3891 9.59521 29.2693 9.24512C29.1495 8.89042 29.0897 8.46433 29.0897 7.96683V3.13698H30.9138V7.98065C30.9138 8.2294 30.9414 8.43669 30.9967 8.60252C31.0566 8.76835 31.1372 8.90424 31.2386 9.01019C31.3445 9.11153 31.4666 9.18524 31.6048 9.2313C31.7476 9.27276 31.8996 9.29349 32.0608 9.29349C32.503 9.29349 32.8508 9.20597 33.1042 9.03092C33.3621 8.85127 33.5464 8.61173 33.6569 8.31232C33.7675 8.00829 33.8228 7.66742 33.8228 7.28969ZM38.8668 4.66402V10.6132H37.0427V3.13698H38.7701L38.8668 4.66402ZM41.1401 3.08862L41.1125 4.78839C41.0111 4.76997 40.896 4.75615 40.767 4.74693C40.6426 4.73772 40.5251 4.73311 40.4146 4.73311C40.1336 4.73311 39.8871 4.77227 39.6752 4.85058C39.4634 4.92428 39.286 5.03253 39.1432 5.17533C39.005 5.31813 38.8991 5.49318 38.8254 5.70047C38.7517 5.90315 38.7102 6.13347 38.701 6.39143L38.3071 6.34306C38.3071 5.8686 38.3555 5.42869 38.4522 5.02332C38.549 4.61795 38.6895 4.26326 38.8737 3.95923C39.058 3.65521 39.2883 3.42028 39.5647 3.25445C39.8457 3.08401 40.1681 2.99879 40.532 2.99879C40.6334 2.99879 40.7416 3.008 40.8568 3.02643C40.9766 3.04025 41.071 3.06098 41.1401 3.08862ZM45.7074 9.72189C45.7074 9.4455 45.8018 9.21287 45.9907 9.02401C46.1795 8.83515 46.4352 8.74072 46.7576 8.74072C47.0801 8.74072 47.3358 8.83515 47.5246 9.02401C47.7135 9.21287 47.8079 9.4455 47.8079 9.72189C47.8079 9.99367 47.7135 10.224 47.5246 10.4129C47.3358 10.5971 47.0801 10.6892 46.7576 10.6892C46.4352 10.6892 46.1795 10.5971 45.9907 10.4129C45.8018 10.224 45.7074 9.99367 45.7074 9.72189ZM45.7143 3.92468C45.7143 3.6483 45.8087 3.41567 45.9976 3.22681C46.1864 3.03795 46.4421 2.94351 46.7646 2.94351C47.087 2.94351 47.3427 3.03795 47.5315 3.22681C47.7204 3.41567 47.8148 3.6483 47.8148 3.92468C47.8148 4.19646 47.7204 4.42679 47.5315 4.61565C47.3427 4.79991 47.087 4.89204 46.7646 4.89204C46.4421 4.89204 46.1864 4.79991 45.9976 4.61565C45.8087 4.42679 45.7143 4.19646 45.7143 3.92468Z" fill="#3C4242"/>
<path d="M57.0392 6.12887H54.4688L54.455 4.78839H56.6592C57.0369 4.78839 57.3525 4.73542 57.6058 4.62947C57.8592 4.52352 58.0503 4.36921 58.1793 4.16652C58.3129 3.96384 58.3797 3.7174 58.3797 3.42719C58.3797 3.10474 58.3175 2.84217 58.1931 2.63949C58.0734 2.43681 57.8845 2.2894 57.6265 2.19727C57.3686 2.10054 57.0415 2.05217 56.6454 2.05217H55.0838V10.6132H53.1836V0.552772H56.6454C57.2166 0.552772 57.7256 0.60805 58.1724 0.718604C58.6238 0.824552 59.0062 0.990384 59.3194 1.2161C59.6326 1.44181 59.8699 1.72511 60.0311 2.06599C60.1969 2.40686 60.2798 2.81223 60.2798 3.28209C60.2798 3.69667 60.1831 4.079 59.9896 4.42909C59.8008 4.77457 59.5083 5.05557 59.1121 5.27207C58.7206 5.48857 58.2231 5.61294 57.6196 5.64519L57.0392 6.12887ZM56.9563 10.6132H53.9091L54.7037 9.12075H56.9563C57.334 9.12075 57.645 9.05856 57.8891 8.93419C58.1378 8.80981 58.3221 8.63937 58.4419 8.42287C58.5662 8.20176 58.6284 7.94841 58.6284 7.66281C58.6284 7.34957 58.5732 7.07779 58.4626 6.84747C58.3567 6.61715 58.1862 6.4398 57.9513 6.31543C57.721 6.19105 57.4169 6.12887 57.0392 6.12887H55.0631L55.0769 4.78839H57.592L58.0273 5.30662C58.6077 5.31122 59.0799 5.42638 59.4438 5.6521C59.8123 5.87781 60.0841 6.16802 60.2591 6.52272C60.4342 6.87741 60.5217 7.25975 60.5217 7.66972C60.5217 8.31462 60.3812 8.85588 60.1002 9.29349C59.8238 9.7311 59.4184 10.0605 58.8841 10.2816C58.3544 10.5027 57.7118 10.6132 56.9563 10.6132ZM63.9627 0V10.6132H62.1316V0H63.9627ZM70.1537 8.83745V3.13698H71.9917V10.6132H70.2643L70.1537 8.83745ZM70.3887 7.28969L70.9553 7.27587C70.9553 7.77797 70.9 8.24092 70.7894 8.66471C70.6789 9.0885 70.5061 9.45702 70.2712 9.77025C70.0409 10.0789 69.7484 10.3207 69.3937 10.4958C69.039 10.6662 68.6198 10.7514 68.1361 10.7514C67.7676 10.7514 67.4313 10.7008 67.1273 10.5994C66.8233 10.4935 66.5607 10.3299 66.3396 10.1088C66.1231 9.88311 65.955 9.59521 65.8352 9.24512C65.7154 8.89042 65.6556 8.46433 65.6556 7.96683V3.13698H67.4797V7.98065C67.4797 8.2294 67.5073 8.43669 67.5626 8.60252C67.6225 8.76835 67.7031 8.90424 67.8045 9.01019C67.9104 9.11153 68.0325 9.18524 68.1707 9.2313C68.3135 9.27276 68.4655 9.29349 68.6267 9.29349C69.0689 9.29349 69.4167 9.20597 69.6701 9.03092C69.928 8.85127 70.1123 8.61173 70.2228 8.31232C70.3334 8.00829 70.3887 7.66742 70.3887 7.28969ZM76.9667 10.7514C76.4001 10.7514 75.8911 10.6593 75.4396 10.475C74.9882 10.2908 74.6036 10.0351 74.2857 9.70807C73.9725 9.3764 73.7306 8.99177 73.5602 8.55415C73.3944 8.11194 73.3115 7.63747 73.3115 7.13077V6.85438C73.3115 6.27857 73.3944 5.75574 73.5602 5.28589C73.726 4.81142 73.961 4.40375 74.265 4.06288C74.569 3.722 74.9329 3.45943 75.3567 3.27518C75.7805 3.09092 76.2481 2.99879 76.7594 2.99879C77.2891 2.99879 77.7567 3.08862 78.162 3.26827C78.5674 3.44331 78.906 3.69206 79.1778 4.01451C79.4495 4.33696 79.6545 4.7239 79.7927 5.17533C79.9309 5.62216 80 6.11735 80 6.66091V7.42788H74.1406V6.17032H78.2035V6.03213C78.1943 5.74192 78.139 5.47705 78.0377 5.23752C77.9363 4.99338 77.7797 4.79991 77.5678 4.65711C77.3559 4.5097 77.0818 4.436 76.7456 4.436C76.4738 4.436 76.2365 4.49588 76.0339 4.61565C75.8358 4.73081 75.6699 4.89664 75.5364 5.11315C75.4074 5.32504 75.3106 5.5784 75.2462 5.87321C75.1817 6.16802 75.1494 6.49508 75.1494 6.85438V7.13077C75.1494 7.444 75.1909 7.73421 75.2738 8.00138C75.3613 8.26856 75.488 8.50118 75.6538 8.69926C75.8243 8.89273 76.0269 9.04474 76.2619 9.15529C76.5014 9.26124 76.7732 9.31422 77.0772 9.31422C77.4595 9.31422 77.805 9.24051 78.1137 9.09311C78.4269 8.9411 78.6987 8.71768 78.929 8.42287L79.848 9.3764C79.6914 9.60673 79.4795 9.82783 79.2123 10.0397C78.9497 10.2516 78.6319 10.4244 78.2588 10.558C77.8856 10.6869 77.4549 10.7514 76.9667 10.7514Z" fill="#BEBCBD"/>
</svg>
