<svg width="17" height="17" viewBox="0 0 17 17" fill="none" xmlns="http://www.w3.org/2000/svg">
<path d="M0.580732 4.54037H16.4192M3.74843 12.4596H6.91613M10.0838 12.4596H13.2515M3.11489 16.4193H13.8851C14.7721 16.4193 15.2156 16.4193 15.5544 16.2035C15.8525 16.0137 16.0948 15.7108 16.2466 15.3383C16.4192 14.9147 16.4192 14.3604 16.4192 13.2516V3.74845C16.4192 2.63965 16.4192 2.08525 16.2466 1.66174C16.0948 1.28922 15.8525 0.986346 15.5544 0.796535C15.2156 0.580748 14.7721 0.580748 13.8851 0.580748H3.11489C2.22785 0.580748 1.78433 0.580748 1.44553 0.796535C1.14751 0.986346 0.905211 1.28922 0.753362 1.66174C0.580732 2.08525 0.580732 2.63965 0.580732 3.74845V13.2516C0.580732 14.3604 0.580732 14.9147 0.753362 15.3383C0.905211 15.7108 1.14751 16.0137 1.44553 16.2035C1.78433 16.4193 2.22785 16.4193 3.11489 16.4193Z" stroke="#3C4242" stroke-width="1.1" stroke-linecap="round"/>
</svg>
