<svg width="17" height="20" viewBox="0 0 17 20" fill="none" xmlns="http://www.w3.org/2000/svg">
<path d="M7.17871 7.9798C7.17871 7.47772 6.77169 7.07071 6.26961 7.07071C5.76754 7.07071 5.36052 7.47772 5.36052 7.9798H7.17871ZM5.36052 16.0606C5.36052 16.5627 5.76754 16.9697 6.26961 16.9697C6.77169 16.9697 7.17871 16.5627 7.17871 16.0606H5.36052ZM11.4672 7.9798C11.4672 7.47772 11.0602 7.07071 10.5581 7.07071C10.056 7.07071 9.64902 7.47772 9.64902 7.9798H11.4672ZM9.64902 16.0606C9.64902 16.5627 10.056 16.9697 10.5581 16.9697C11.0602 16.9697 11.4672 16.5627 11.4672 16.0606H9.64902ZM3.1519 18.8707L3.54532 18.0512L3.1519 18.8707ZM2.21483 17.9879L3.01447 17.5554H3.01447L2.21483 17.9879ZM14.6129 17.9879L13.8133 17.5554V17.5554L14.6129 17.9879ZM13.6758 18.8707L13.2824 18.0512H13.2824L13.6758 18.8707ZM0.908992 4.0404C0.406915 4.0404 -9.86186e-05 4.44742 -9.86186e-05 4.94949C-9.86186e-05 5.45157 0.406915 5.85859 0.908992 5.85859V4.0404ZM15.9187 5.85859C16.4208 5.85859 16.8278 5.45157 16.8278 4.94949C16.8278 4.44742 16.4208 4.0404 15.9187 4.0404V5.85859ZM3.75234 4.9495C3.75234 5.45157 4.15935 5.85859 4.66143 5.85859C5.16351 5.85859 5.57052 5.45157 5.57052 4.9495H3.75234ZM11.2572 4.9495C11.2572 5.45157 11.6642 5.85859 12.1663 5.85859C12.6684 5.85859 13.0754 5.45157 13.0754 4.9495H11.2572ZM5.36052 7.9798V16.0606H7.17871V7.9798H5.36052ZM9.64902 7.9798V16.0606H11.4672V7.9798H9.64902ZM13.9375 4.94949V15.8586H15.7557V4.94949H13.9375ZM11.4158 18.1818H5.41191V20H11.4158V18.1818ZM1.07203 4.94949V15.8586H2.89021V4.94949H1.07203ZM5.41191 18.1818C4.79733 18.1818 4.38791 18.1812 4.07335 18.157C3.76791 18.1335 3.63005 18.0918 3.54532 18.0512L2.75847 19.6903C3.13242 19.8698 3.52413 19.9383 3.9338 19.9698C4.33436 20.0006 4.82561 20 5.41191 20V18.1818ZM1.07203 15.8586C1.07203 16.4084 1.07123 16.8787 1.10464 17.264C1.13912 17.6616 1.21496 18.0501 1.41518 18.4203L3.01447 17.5554C2.98098 17.4935 2.93997 17.3831 2.91602 17.1069C2.891 16.8184 2.89021 16.4402 2.89021 15.8586H1.07203ZM3.54532 18.0512C3.30811 17.9373 3.12543 17.7606 3.01447 17.5554L1.41518 18.4203C1.71537 18.9754 2.18875 19.4168 2.75847 19.6903L3.54532 18.0512ZM13.9375 15.8586C13.9375 16.4402 13.9367 16.8184 13.9117 17.1069C13.8878 17.3831 13.8467 17.4935 13.8133 17.5554L15.4125 18.4203C15.6128 18.0501 15.6886 17.6616 15.7231 17.264C15.7565 16.8787 15.7557 16.4084 15.7557 15.8586H13.9375ZM11.4158 20C12.0021 20 12.4934 20.0006 12.8939 19.9698C13.3036 19.9383 13.6953 19.8698 14.0693 19.6903L13.2824 18.0512C13.1977 18.0918 13.0598 18.1335 12.7544 18.157C12.4398 18.1812 12.0304 18.1818 11.4158 18.1818V20ZM13.8133 17.5554C13.7023 17.7606 13.5196 17.9373 13.2824 18.0512L14.0693 19.6903C14.639 19.4168 15.1124 18.9754 15.4125 18.4203L13.8133 17.5554ZM0.908992 5.85859H1.98112V4.0404H0.908992V5.85859ZM1.98112 5.85859H14.8466V4.0404H1.98112V5.85859ZM14.8466 5.85859H15.9187V4.0404H14.8466V5.85859ZM5.57052 4.14142C5.57052 2.98089 6.7115 1.81818 8.41386 1.81818V1.56537e-06C5.9714 1.56537e-06 3.75234 1.73161 3.75234 4.14142H5.57052ZM8.41386 1.81818C10.1162 1.81818 11.2572 2.98089 11.2572 4.14142H13.0754C13.0754 1.73161 10.8563 1.56537e-06 8.41386 1.56537e-06V1.81818ZM3.75234 4.14142V4.9495H5.57052V4.14142H3.75234ZM11.2572 4.14142V4.9495H13.0754V4.14142H11.2572Z" fill="#FE0000"/>
</svg>
