<svg width="18" height="18" viewBox="0 0 18 18" fill="none" xmlns="http://www.w3.org/2000/svg">
<path d="M5.2573 15.5497C5.2573 16.5832 4.41947 17.4211 3.38596 17.4211C2.35244 17.4211 1.51461 16.5832 1.51461 15.5497C1.51461 14.5162 2.35244 13.6784 3.38596 13.6784C4.41947 13.6784 5.2573 14.5162 5.2573 15.5497ZM5.2573 15.5497H12.7427C13.7762 15.5497 14.614 14.7119 14.614 13.6784V9.93567M12.7427 2.45028C12.7427 3.4838 13.5805 4.32163 14.614 4.32163C15.6476 4.32163 16.4854 3.4838 16.4854 2.45028C16.4854 1.41677 15.6476 0.578935 14.614 0.578935C13.5805 0.578935 12.7427 1.41677 12.7427 2.45028ZM12.7427 2.45028H5.2573C4.22379 2.45028 3.38596 3.28811 3.38596 4.32163V8.06433M17.4211 11.807L14.9449 9.14719C14.7622 8.95094 14.4659 8.95094 14.2832 9.14719L11.807 11.807M6.19298 6.19298L3.71677 8.85281C3.53407 9.04906 3.23785 9.04906 3.05515 8.85281L0.578935 6.19298" stroke="#3C4242" stroke-width="1.1" stroke-linecap="round"/>
</svg>
