<svg width="20" height="20" viewBox="0 0 20 20" fill="none" xmlns="http://www.w3.org/2000/svg">
<path d="M20.0002 10.2219C20.0002 9.3997 19.9321 8.7997 19.7848 8.17749H10.2041V11.8885H15.8277C15.7144 12.8108 15.1022 14.1997 13.7416 15.133L13.7225 15.2572L16.7517 17.5569L16.9616 17.5775C18.889 15.833 20.0002 13.2663 20.0002 10.2219Z" fill="#4285F4"/>
<path d="M10.2027 20.0001C12.9578 20.0001 15.2708 19.1111 16.9602 17.5778L13.7402 15.1333C12.8785 15.7222 11.722 16.1333 10.2027 16.1333C7.5043 16.1333 5.21403 14.3889 4.39761 11.9778L4.27794 11.9877L1.12811 14.3767L1.08691 14.4889C2.76493 17.7555 6.21171 20.0001 10.2027 20.0001Z" fill="#34A853"/>
<path d="M4.39914 11.9777C4.18372 11.3555 4.05904 10.6888 4.05904 9.99996C4.05904 9.31103 4.18372 8.64439 4.3878 8.02218L4.3821 7.88966L1.19278 5.4624L1.08843 5.51104C0.396838 6.86661 0 8.38886 0 9.99996C0 11.6111 0.396838 13.1332 1.08843 14.4888L4.39914 11.9777Z" fill="#FBBC05"/>
<path d="M10.2028 3.86663C12.1189 3.86663 13.4114 4.67773 14.1484 5.35555L17.0283 2.59999C15.2596 0.988889 12.9579 0 10.2028 0C6.21174 0 2.76494 2.24442 1.08691 5.51105L4.38629 8.02218C5.21405 5.61108 7.50433 3.86663 10.2028 3.86663Z" fill="#EB4335"/>
</svg>
