<svg width="20" height="20" viewBox="0 0 20 20" fill="none" xmlns="http://www.w3.org/2000/svg">
<path d="M18.6591 1.08762L17.8498 0.167443C17.6211 -0.0926147 17.1988 -0.0525927 16.9349 0.307434L14.1196 3.48824C12.8527 2.86814 11.4629 2.56806 10.0025 2.56806C5.65652 2.58799 1.89155 5.46872 0.0791977 9.61008C-0.0263992 9.87014 -0.0263992 10.1901 0.0791977 10.4102C0.923656 12.3707 2.19053 13.9912 3.77403 15.2115L1.46917 17.8721C1.20526 18.1722 1.17006 18.6523 1.34605 18.9124L2.15533 19.8326C2.38405 20.0926 2.8063 20.0526 3.07022 19.6926L18.518 2.12804C18.8523 1.82812 18.8875 1.34804 18.6588 1.08796L18.6591 1.08762ZM10.935 7.12908C10.6358 7.04904 10.3192 6.94907 10.0201 6.94907C8.5245 6.94907 7.3282 8.30946 7.3282 10.0098C7.3282 10.3499 7.3986 10.7099 7.48652 11.05L6.30757 12.3704C5.95573 11.6703 5.7622 10.89 5.7622 10.0098C5.7622 7.34916 7.64483 5.20856 9.98487 5.20856C10.7591 5.20856 11.4452 5.4286 12.061 5.82865L10.935 7.12908Z" fill="#807D7E"/>
<path d="M19.9264 9.61019C19.3106 8.20976 18.5012 6.94951 17.4984 5.9292L14.2258 9.61019V10.0102C14.2258 12.6709 12.3432 14.8115 10.0032 14.8115H9.65132L7.5752 17.1721C8.34941 17.3521 9.1587 17.4722 9.95045 17.4722C14.2964 17.4722 18.0614 14.5915 19.8737 10.4302C20.0321 10.15 20.0321 9.87006 19.9265 9.60998L19.9264 9.61019Z" fill="#807D7E"/>
</svg>
