<svg width="22" height="20" viewBox="0 0 22 20" fill="none" xmlns="http://www.w3.org/2000/svg">
<path d="M6.90698 5.11628C6.48313 5.11628 6.13953 5.45987 6.13953 5.88372C6.13953 6.30757 6.48313 6.65116 6.90698 6.65116V5.11628ZM15.093 6.65116C15.5169 6.65116 15.8605 6.30757 15.8605 5.88372C15.8605 5.45987 15.5169 5.11628 15.093 5.11628V6.65116ZM6.90698 9.2093C6.48313 9.2093 6.13953 9.5529 6.13953 9.97674C6.13953 10.4006 6.48313 10.7442 6.90698 10.7442V9.2093ZM11 10.7442C11.4238 10.7442 11.7674 10.4006 11.7674 9.97674C11.7674 9.5529 11.4238 9.2093 11 9.2093V10.7442ZM21.0095 13.9756L21.6933 14.324V14.324L21.0095 13.9756ZM20.1151 14.87L20.4636 15.5538L20.1151 14.87ZM20.1151 0.990498L20.4636 0.306703L20.4636 0.306703L20.1151 0.990498ZM21.0095 1.88486L21.6933 1.53645V1.53644L21.0095 1.88486ZM1.88486 0.990498L2.23327 1.67429L2.23327 1.67429L1.88486 0.990498ZM0.990498 1.88486L1.67429 2.23327L1.67429 2.23327L0.990498 1.88486ZM2.00286 18.5579L2.44561 19.1847L2.4457 19.1847L2.00286 18.5579ZM6.05757 15.6931L5.61473 15.0664H5.61473L6.05757 15.6931ZM0.859813 18.6515L1.4887 18.2116H1.4887L0.859813 18.6515ZM1.89645 18.6215L1.55361 17.9349L1.5536 17.9349L1.89645 18.6215ZM1.20429 18.8643L1.09212 19.6235H1.09212L1.20429 18.8643ZM1.96448 18.5843L1.55071 17.938L1.5506 17.9381L1.96448 18.5843ZM1.9378 18.6003L1.56404 17.93L1.56399 17.93L1.9378 18.6003ZM7.1815 15.1278L7.3223 15.8822L7.32231 15.8822L7.1815 15.1278ZM6.70282 15.2798L7.02313 15.9772L7.02313 15.9772L6.70282 15.2798ZM6.90698 6.65116H15.093V5.11628H6.90698V6.65116ZM6.90698 10.7442H11V9.2093H6.90698V10.7442ZM4.04186 1.53488H17.9581V0H4.04186V1.53488ZM20.4651 4.04186V11.8186H22V4.04186H20.4651ZM20.4651 11.8186C20.4651 12.4043 20.4645 12.7975 20.4398 13.1003C20.4158 13.3941 20.3729 13.5345 20.3257 13.6272L21.6933 14.324C21.8691 13.9789 21.9378 13.614 21.9696 13.2252C22.0006 12.8455 22 12.379 22 11.8186H20.4651ZM17.9581 15.8605C18.5186 15.8605 18.985 15.8611 19.3648 15.83C19.7535 15.7983 20.1184 15.7296 20.4636 15.5538L19.7667 14.1862C19.6741 14.2334 19.5336 14.2762 19.2398 14.3002C18.937 14.325 18.5439 14.3256 17.9581 14.3256V15.8605ZM20.3257 13.6272C20.2031 13.8679 20.0074 14.0635 19.7667 14.1862L20.4636 15.5538C20.993 15.284 21.4235 14.8535 21.6933 14.324L20.3257 13.6272ZM17.9581 1.53488C18.5439 1.53488 18.937 1.53548 19.2398 1.56022C19.5336 1.58422 19.6741 1.62708 19.7667 1.67429L20.4636 0.306703C20.1184 0.130862 19.7535 0.0621905 19.3648 0.0304309C18.985 -0.000596795 18.5186 0 17.9581 0V1.53488ZM22 4.04186C22 3.48145 22.0006 3.01498 21.9696 2.63522C21.9378 2.2465 21.8691 1.88155 21.6933 1.53645L20.3257 2.23327C20.3729 2.32593 20.4158 2.46641 20.4398 2.76021C20.4645 3.06297 20.4651 3.45612 20.4651 4.04186H22ZM19.7667 1.67429C20.0074 1.79692 20.2031 1.99259 20.3257 2.23327L21.6933 1.53644C21.4235 1.00697 20.993 0.576487 20.4636 0.306703L19.7667 1.67429ZM4.04186 0C3.48145 0 3.01498 -0.000596795 2.63522 0.0304309C2.2465 0.0621905 1.88155 0.130862 1.53645 0.306703L2.23327 1.67429C2.32593 1.62708 2.46641 1.58422 2.76021 1.56022C3.06297 1.53548 3.45612 1.53488 4.04186 1.53488V0ZM1.53488 4.04186C1.53488 3.45612 1.53548 3.06297 1.56022 2.76021C1.58422 2.46641 1.62708 2.32593 1.67429 2.23327L0.306703 1.53645C0.130862 1.88155 0.0621905 2.2465 0.0304309 2.63522C-0.000596795 3.01498 0 3.48145 0 4.04186H1.53488ZM1.53645 0.306703C1.00697 0.576486 0.576486 1.00697 0.306703 1.53645L1.67429 2.23327C1.79692 1.9926 1.9926 1.79692 2.23327 1.67429L1.53645 0.306703ZM17.9581 14.3256H7.947V15.8605H17.9581V14.3256ZM2.4457 19.1847L6.5004 16.3199L5.61473 15.0664L1.56002 17.9311L2.4457 19.1847ZM0 17.8615C0 18.0658 -0.000764886 18.272 0.0147407 18.4414C0.0301454 18.6097 0.0689535 18.8597 0.230928 19.0913L1.4887 18.2116C1.5583 18.3111 1.55092 18.3855 1.54324 18.3015C1.53999 18.266 1.53753 18.215 1.53621 18.1383C1.53491 18.0619 1.53488 17.9731 1.53488 17.8615H0ZM1.5536 17.9349C1.46446 17.9794 1.39342 18.0146 1.33259 18.0433C1.27133 18.0721 1.23087 18.0894 1.20332 18.0998C1.13882 18.1241 1.20104 18.0881 1.31646 18.1051L1.09212 19.6235C1.35924 19.663 1.58979 19.5944 1.74456 19.5361C1.89855 19.478 2.07139 19.392 2.2393 19.3081L1.5536 17.9349ZM0.230928 19.0913C0.432574 19.3796 0.744074 19.5721 1.09212 19.6235L1.31646 18.1051C1.38607 18.1154 1.44837 18.1539 1.4887 18.2116L0.230928 19.0913ZM1.53488 17.8615V4.04186H0V17.8615H1.53488ZM1.56011 17.931C1.55518 17.9345 1.55163 17.937 1.54858 17.9392C1.54556 17.9413 1.54396 17.9424 1.54311 17.943C1.54176 17.9439 1.54514 17.9415 1.55071 17.938L2.37825 19.2307C2.40616 19.2128 2.43216 19.1942 2.44561 19.1847L1.56011 17.931ZM2.23929 19.3081C2.2543 19.3006 2.28268 19.2867 2.3116 19.2705L1.56399 17.93C1.56963 17.9269 1.57327 17.9251 1.57196 17.9257C1.57109 17.9262 1.56939 17.927 1.56613 17.9287C1.56283 17.9303 1.55897 17.9322 1.55361 17.9349L2.23929 19.3081ZM1.5506 17.9381C1.55505 17.9352 1.55947 17.9326 1.56404 17.93L2.31155 19.2706C2.33417 19.258 2.35651 19.2446 2.37836 19.2306L1.5506 17.9381ZM7.947 14.3256C7.58851 14.3256 7.3127 14.3226 7.04068 14.3734L7.32231 15.8822C7.42257 15.8635 7.53301 15.8605 7.947 15.8605V14.3256ZM6.5004 16.3199C6.83852 16.0811 6.93045 16.0198 7.02313 15.9772L6.38251 14.5824C6.13105 14.6979 5.90751 14.8595 5.61473 15.0664L6.5004 16.3199ZM7.04069 14.3734C6.81354 14.4157 6.59248 14.486 6.3825 14.5824L7.02313 15.9772C7.11858 15.9334 7.21906 15.9014 7.3223 15.8822L7.04069 14.3734Z" fill="#807D7E"/>
</svg>
