<svg width="19" height="16" viewBox="0 0 19 16" fill="none" xmlns="http://www.w3.org/2000/svg">
<path d="M16.9727 0.870093L16.2365 0.133954C16.0285 -0.0740918 15.6444 -0.0420742 15.4043 0.245948L12.8435 2.79059C11.6911 2.29452 10.4269 2.05445 9.09846 2.05445C5.14528 2.07039 1.7206 4.37498 0.0720399 7.68807C-0.0240133 7.89611 -0.0240133 8.15211 0.0720399 8.32814C0.840177 9.89658 1.99255 11.193 3.43294 12.1692L1.33639 14.2977C1.09633 14.5378 1.06431 14.9218 1.2244 15.1299L1.96054 15.866C2.16858 16.0741 2.55267 16.0421 2.79274 15.7541L16.8444 1.70243C17.1485 1.4625 17.1805 1.07843 16.9725 0.870368L16.9727 0.870093ZM9.94667 5.70327C9.67459 5.63923 9.38657 5.55925 9.11447 5.55925C7.75406 5.55925 6.66589 6.64757 6.66589 8.00784C6.66589 8.27992 6.72992 8.56794 6.8099 8.84004L5.7375 9.89635C5.41746 9.33625 5.24142 8.71198 5.24142 8.00787C5.24142 5.87933 6.9539 4.16685 9.08245 4.16685C9.78669 4.16685 10.4108 4.34288 10.9709 4.66292L9.94667 5.70327Z" fill="#807D7E"/>
<path d="M18.1254 7.688C17.5653 6.56766 16.829 5.55946 15.9169 4.74321L12.9401 7.688V8.00804C12.9401 10.1366 11.2276 11.8491 9.09903 11.8491H8.77899L6.89051 13.7375C7.59475 13.8816 8.33089 13.9776 9.05109 13.9776C13.0043 13.9776 16.429 11.673 18.0775 8.34399C18.2215 8.11987 18.2215 7.8959 18.1255 7.68783L18.1254 7.688Z" fill="#807D7E"/>
</svg>
