<svg width="37" height="14" viewBox="0 0 37 14" fill="none" xmlns="http://www.w3.org/2000/svg">
<path d="M5.69653 8.72324L8.35949 10.8371L7.15155 11.8872L4.52977 9.78705L5.69653 8.72324ZM8.40753 4.8798V5.39455C8.40753 6.14951 8.30687 6.82897 8.10555 7.43294C7.90422 8.03234 7.61596 8.54251 7.24077 8.96346C6.87015 9.38441 6.42862 9.70698 5.91616 9.93118C5.4037 10.1554 4.83633 10.2675 4.21406 10.2675C3.59636 10.2675 3.029 10.1554 2.51196 9.93118C1.99951 9.70698 1.55568 9.38441 1.18049 8.96346C0.805293 8.54251 0.514747 8.03234 0.308848 7.43294C0.102949 6.82897 0 6.14951 0 5.39455V4.8798C0 4.12026 0.100662 3.4408 0.301985 2.8414C0.507884 2.24201 0.796142 1.73184 1.16676 1.31089C1.54195 0.885364 1.98578 0.560502 2.49824 0.336301C3.01527 0.1121 3.58264 0 4.20033 0C4.82261 0 5.38997 0.1121 5.90243 0.336301C6.41946 0.560502 6.86329 0.885364 7.23391 1.31089C7.6091 1.73184 7.89736 2.24201 8.09868 2.8414C8.30458 3.4408 8.40753 4.12026 8.40753 4.8798ZM6.49954 5.39455V4.86607C6.49954 4.32159 6.44921 3.84344 6.34854 3.43165C6.24788 3.01527 6.09689 2.66524 5.89557 2.38156C5.69882 2.09788 5.4586 1.88512 5.17492 1.74328C4.89124 1.59686 4.56638 1.52365 4.20033 1.52365C3.83887 1.52365 3.51629 1.59686 3.23261 1.74328C2.94893 1.88512 2.70871 2.09788 2.51196 2.38156C2.31522 2.66524 2.16422 3.01527 2.05899 3.43165C1.95833 3.84344 1.90799 4.32159 1.90799 4.86607V5.39455C1.90799 5.93446 1.95833 6.4126 2.05899 6.82897C2.16422 7.24535 2.31522 7.59766 2.51196 7.88592C2.71329 8.1696 2.95579 8.38465 3.23947 8.53107C3.52773 8.67749 3.85259 8.7507 4.21406 8.7507C4.5801 8.7507 4.90497 8.67749 5.18865 8.53107C5.47233 8.38465 5.71026 8.1696 5.90243 7.88592C6.09918 7.59766 6.24788 7.24535 6.34854 6.82897C6.44921 6.4126 6.49954 5.93446 6.49954 5.39455ZM13.404 2.70414V4.00816H9.14877V2.70414H13.404ZM10.2881 0.878501H12.1068V7.98887C12.1068 8.2085 12.1366 8.37779 12.1961 8.49675C12.2555 8.61572 12.3448 8.69579 12.4637 8.73697C12.5827 8.77815 12.7245 8.79874 12.8893 8.79874C13.0082 8.79874 13.118 8.79188 13.2187 8.77815C13.3194 8.76442 13.404 8.7507 13.4726 8.73697L13.4795 10.0959C13.3285 10.1462 13.1569 10.1874 12.9648 10.2194C12.7772 10.2515 12.5644 10.2675 12.3265 10.2675C11.9192 10.2675 11.5624 10.1988 11.2558 10.0616C10.9492 9.91974 10.7113 9.69325 10.542 9.38212C10.3727 9.06641 10.2881 8.65003 10.2881 8.133V0.878501ZM16.7876 9.30662L18.778 2.70414H20.7203L17.7416 11.2558C17.673 11.4388 17.5838 11.6379 17.4739 11.8529C17.3687 12.068 17.2269 12.2716 17.0484 12.4637C16.87 12.6605 16.6458 12.8206 16.3758 12.9442C16.1104 13.0677 15.7879 13.1295 15.4081 13.1295C15.2434 13.1295 15.097 13.118 14.9688 13.0952C14.8407 13.0723 14.7057 13.0425 14.5639 13.0059V11.647C14.6097 11.6516 14.6623 11.6539 14.7218 11.6539C14.7858 11.6584 14.8407 11.6607 14.8865 11.6607C15.1519 11.6607 15.3715 11.6287 15.5454 11.5646C15.7192 11.5052 15.8588 11.4068 15.964 11.2695C16.0738 11.1368 16.1653 10.963 16.2385 10.7479L16.7876 9.30662ZM15.8062 2.70414L17.4877 8.17418L17.7828 10.089L16.5337 10.3155L13.8501 2.70414H15.8062ZM25.1402 9.24485C25.1402 8.97032 25.234 8.73926 25.4216 8.55166C25.6092 8.36406 25.8632 8.27027 26.1835 8.27027C26.5037 8.27027 26.7577 8.36406 26.9453 8.55166C27.1329 8.73926 27.2267 8.97032 27.2267 9.24485C27.2267 9.51481 27.1329 9.74358 26.9453 9.93118C26.7577 10.1142 26.5037 10.2057 26.1835 10.2057C25.8632 10.2057 25.6092 10.1142 25.4216 9.93118C25.234 9.74358 25.1402 9.51481 25.1402 9.24485ZM25.1471 3.48655C25.1471 3.21202 25.2409 2.98096 25.4285 2.79336C25.6161 2.60576 25.87 2.51196 26.1903 2.51196C26.5106 2.51196 26.7645 2.60576 26.9521 2.79336C27.1397 2.98096 27.2335 3.21202 27.2335 3.48655C27.2335 3.75651 27.1397 3.98528 26.9521 4.17288C26.7645 4.3559 26.5106 4.44741 26.1903 4.44741C25.87 4.44741 25.6161 4.3559 25.4285 4.17288C25.2409 3.98528 25.1471 3.75651 25.1471 3.48655Z" fill="#3C4242"/>
<path d="M37 0.109813V10.1302H35.1812V2.23057L32.7722 3.02671V1.55797L36.7941 0.109813H37Z" fill="#BEBCBD"/>
</svg>
