<svg width="18" height="18" viewBox="0 0 18 18" fill="none" xmlns="http://www.w3.org/2000/svg">
<path d="M12.8262 17.4209H5.17376C4.11718 17.4209 3.26064 16.5795 3.26064 15.5417V8.55744C3.26064 8.01405 2.59183 7.74192 2.20068 8.12615C1.84357 8.47695 1.2322 8.28449 1.14917 7.79514L0.605105 4.58852C0.475898 3.82699 0.833967 3.06531 1.5079 2.66811L4.99636 0.612067C5.09796 0.552185 5.22898 0.575315 5.303 0.666201C7.19833 2.99344 10.8017 2.99344 12.697 0.666201C12.771 0.575315 12.902 0.552185 13.0036 0.612067L16.4921 2.66811C17.166 3.06531 17.5241 3.82699 17.3949 4.58852L16.8508 7.79514C16.7678 8.28449 16.1564 8.47695 15.7993 8.12615C15.4082 7.74192 14.7394 8.01405 14.7394 8.55744V15.5417C14.7394 16.5795 13.8828 17.4209 12.8262 17.4209Z" stroke="#3C4242" stroke-width="1.1"/>
</svg>
