<svg width="20" height="16" viewBox="0 0 20 16" fill="none" xmlns="http://www.w3.org/2000/svg">
<path d="M11.8848 12.7923V1.06456C11.8848 0.794683 11.6739 0.575904 11.4136 0.575904H1.04711C0.78687 0.575904 0.575904 0.794684 0.575904 1.06456V12.7923C0.575904 13.0622 0.78687 13.281 1.04711 13.281H2.46072M11.8848 12.7923C11.8848 13.0622 11.6739 13.281 11.4136 13.281H6.23036M11.8848 12.7923V3.9965C11.8848 3.72662 12.0958 3.50785 12.356 3.50785H15.4593C15.5842 3.50785 15.7041 3.55933 15.7925 3.65097L19.2861 7.27398C19.3745 7.36562 19.4241 7.48991 19.4241 7.61951V12.7923C19.4241 13.0622 19.2131 13.281 18.9529 13.281H17.5393M11.8848 12.7923C11.8848 13.0622 12.0958 13.281 12.356 13.281H13.7696M2.46072 13.281C2.46072 14.3605 3.30459 15.2356 4.34554 15.2356C5.3865 15.2356 6.23036 14.3605 6.23036 13.281M2.46072 13.281C2.46072 12.2015 3.30459 11.3264 4.34554 11.3264C5.3865 11.3264 6.23036 12.2015 6.23036 13.281M13.7696 13.281C13.7696 14.3605 14.6135 15.2356 15.6545 15.2356C16.6954 15.2356 17.5393 14.3605 17.5393 13.281M13.7696 13.281C13.7696 12.2015 14.6135 11.3264 15.6545 11.3264C16.6954 11.3264 17.5393 12.2015 17.5393 13.281" stroke="#3C4242" stroke-width="1.1"/>
</svg>
